<svg width="500" height="484" viewBox="0 0 500 484" fill="none" xmlns="http://www.w3.org/2000/svg">
    <path d="M462.958 61.0526L460.164 56.5048C437.761 20.0554 397.423 -2.0019 354.683 0.143496C348.671 0.44343 342.693 1.2206 336.804 2.46768C297.494 10.7699 263.291 40.1238 249.122 77.7129C240.787 99.8261 238.451 125.28 222.629 142.835C202.035 165.674 167.072 166.389 136.344 165.439C105.616 164.49 70.6189 165.305 50.1259 188.234C37.2982 202.593 33.2198 223.007 34.2478 242.238C36.9854 293.157 72.9207 338.68 118.611 361.307C164.301 383.934 218.059 385.968 268.107 376.012C338.167 362.067 404.786 323.774 444.834 264.619C484.881 205.464 494.994 124.889 462.958 61.0526Z" fill="#F0F0F0"/>
    <path d="M179.364 73.5903C168.324 62.5616 148.836 54.7957 135.662 63.1538L137.54 62.1594C123.539 69.0648 114.488 84.9877 115.929 100.519C117.371 116.051 129.338 130.119 144.546 133.773C159.753 137.427 176.95 130.242 184.772 116.766C192.594 103.291 190.392 84.6301 179.364 73.5903Z" fill="#F0F0F0"/>
    <path d="M155.775 143.569C154.387 144.634 154.273 145.984 153.234 147.391C152.361 148.475 151.678 149.7 151.214 151.013C150.998 151.627 150.808 152.209 150.63 152.768C149.819 155.346 149.745 158.099 150.416 160.716C150.416 160.716 135.721 165.771 130.014 168.4C128.576 160.716 127.803 157.464 127.803 157.39C125.636 151.733 124.624 144.813 123.78 141.228C122.015 133.771 122.675 133.601 123.583 133.547C126.006 133.39 127.186 146.543 128.576 143.569C129.966 140.595 125.261 127.65 127.803 127.59C131.124 127.513 132.099 141.313 132.268 142.473C132.437 143.633 134.134 143.409 133.921 142.375C133.622 140.882 130.86 125.082 134.106 124.986C135.899 124.959 135.721 128.178 135.721 128.178C135.721 128.178 137.218 143.139 138.752 143.037C140.286 142.935 139.727 134.127 139.323 131.162C138.919 128.197 140.143 126.865 141.587 127.756C142.569 128.369 144.035 137.401 144.369 140.34C144.702 143.278 145.481 151.335 148.329 147.044C151.176 142.753 153.875 140.447 155.32 140.56C156.765 140.673 157.144 142.726 155.775 143.569Z" fill="#A88566"/>
    <path d="M143.909 259.468L173.095 357.944C173.726 360.075 175.028 361.946 176.808 363.276C178.588 364.607 180.75 365.328 182.973 365.33L301.416 365.654C302.906 365.658 304.381 365.358 305.751 364.772C307.12 364.187 308.357 363.328 309.383 362.249C310.41 361.17 311.207 359.893 311.723 358.495C312.24 357.098 312.467 355.61 312.389 354.123C312.238 351.323 311.019 348.688 308.985 346.759C306.95 344.831 304.254 343.755 301.45 343.753H256.162L219.891 242.708H156.401C154.37 242.706 152.367 243.179 150.552 244.09C148.736 245 147.159 246.322 145.945 247.95C144.732 249.579 143.915 251.468 143.562 253.468C143.208 255.468 143.327 257.523 143.909 259.468Z" fill="#455A64"/>
    <path d="M244.116 351.844C244.116 352.078 232.037 352.257 217.143 352.257C202.248 352.257 190.18 352.078 190.18 351.844C190.18 351.609 202.248 351.43 217.143 351.43C232.037 351.43 244.116 351.609 244.116 351.844Z" fill="#263238"/>
    <path d="M152.624 245.814C152.837 245.747 160.904 269.335 170.637 298.51C180.369 327.685 188.068 351.397 187.856 351.464C187.643 351.531 179.576 327.998 169.843 298.767C160.111 269.536 152.401 245.892 152.624 245.814Z" fill="#263238"/>
    <path d="M239.189 452.878L231.97 452.71V365.33H239.189V452.878Z" fill="#455A64"/>
    <path d="M201.991 452.475H269.18L238.742 441.894H231.524L201.991 452.475Z" fill="#455A64"/>
    <path d="M184.995 220.091L196.113 275.637L194.124 317.26L268.855 304.834L265.928 268.407L265.839 238.238L284.164 273.749L298.422 246.182L272.308 198.861C267.554 193.892 261.703 190.104 255.223 187.799C251.781 186.558 248.165 185.864 244.507 185.743C236.091 188.407 227.057 188.407 218.64 185.743C217.589 185.877 216.137 186.022 214.293 186.234H213.958C206.272 187.209 199.172 190.854 193.9 196.532C188.629 202.21 185.52 209.56 185.118 217.298L184.995 220.091Z" fill="#2E3E56"/>
    <path d="M231.663 206.233C231.663 206.233 236.228 169.518 185.21 196.257L165.293 209.297L180.433 230.971L231.663 206.233Z" fill="#2E3E56"/>
    <path d="M287.672 227.958C287.672 228.193 263.514 228.383 233.714 228.383C203.913 228.383 179.799 228.182 179.799 227.958C179.799 227.735 203.946 227.545 233.758 227.545C263.57 227.545 287.672 227.735 287.672 227.958Z" fill="#FAFAFA"/>
    <path d="M287.672 233.109C287.672 233.333 263.514 233.523 233.714 233.523C203.913 233.523 179.755 233.333 179.755 233.109C179.755 232.886 203.901 232.685 233.714 232.685C263.526 232.685 287.672 232.875 287.672 233.109Z" fill="#FAFAFA"/>
    <path d="M285.952 223.712C285.952 223.946 262.185 224.136 232.864 224.136C203.544 224.136 179.799 223.935 179.799 223.712C179.799 223.488 203.566 223.298 232.898 223.298C262.229 223.298 285.952 223.477 285.952 223.712Z" fill="#FAFAFA"/>
    <path d="M265.47 273.738C265.235 273.738 265.336 260.586 265.693 244.384C266.051 228.182 266.531 215.041 266.755 215.041C266.978 215.041 266.889 228.193 266.531 244.395C266.174 260.597 265.693 273.738 265.47 273.738Z" fill="#263238"/>
    <path d="M192.257 221.066L157.387 234.709C155.43 235.352 153.356 235.562 151.31 235.325C149.264 235.088 147.293 234.409 145.535 233.335C143.777 232.261 142.273 230.819 141.127 229.107C139.981 227.395 139.221 225.454 138.899 223.42L128.887 164.471L151.307 155.869L160.583 206.495L184.513 197.893L192.257 221.066Z" fill="#2E3E56"/>
    <path d="M135.807 207.2C135.801 206.933 135.773 206.667 135.725 206.405L135.393 204.136L133.967 195.457L128.731 164.747L128.507 165.158C135.525 162.425 143.292 159.399 151.486 156.207L150.923 155.899L152.819 166.216L160.288 206.477L160.363 206.916L160.696 206.786C170.97 202.376 179.474 198.716 185.515 196.123C188.444 194.838 190.771 193.824 192.429 193.094C193.189 192.798 193.775 192.486 194.232 192.272C194.445 192.188 194.649 192.081 194.838 191.951C194.622 192.02 194.409 192.103 194.203 192.199C193.724 192.385 193.162 192.604 192.35 192.921C190.663 193.578 188.324 194.561 185.362 195.763C179.287 198.297 170.722 201.861 160.434 206.145L160.911 206.415L153.599 166.093L151.692 155.779L151.607 155.285L151.138 155.467C142.944 158.659 135.177 161.685 128.159 164.418L127.868 164.532L127.925 164.833L133.5 195.459L135.129 204.106L135.586 206.387C135.63 206.665 135.704 206.938 135.807 207.2Z" fill="#263238"/>
    <path d="M246.307 186.246C246.307 186.246 246.418 186.424 246.541 186.793C246.736 187.332 246.889 187.885 246.999 188.447C247.405 190.54 247.309 192.7 246.72 194.749C245.813 197.788 244.052 200.503 241.647 202.571C238.719 205.195 234.919 206.633 230.987 206.604C229.033 206.637 227.093 206.274 225.282 205.539C223.472 204.803 221.828 203.71 220.45 202.325C218.262 199.995 216.886 197.02 216.528 193.844C216.266 191.725 216.519 189.575 217.266 187.575C217.464 187.038 217.714 186.521 218.014 186.033C218.215 185.698 218.327 185.53 218.361 185.542C218.394 185.553 218.003 186.29 217.567 187.687C216.974 189.656 216.818 191.73 217.109 193.766C217.532 196.781 218.893 199.588 220.998 201.788C222.315 203.083 223.876 204.101 225.592 204.784C227.307 205.467 229.141 205.801 230.987 205.766C234.716 205.797 238.327 204.457 241.133 202.001C243.471 200.038 245.213 197.46 246.161 194.559C246.772 192.594 246.948 190.52 246.675 188.48C246.485 187.05 246.217 186.268 246.307 186.246Z" fill="#263238"/>
    <path d="M153.986 169.939C152.839 170.401 151.647 170.74 150.429 170.952C148.255 171.478 145.172 172.24 141.835 173.168C138.497 174.096 135.484 174.977 133.325 175.72C132.177 176.178 130.985 176.518 129.768 176.733C130.823 176.08 131.956 175.562 133.14 175.192C135.231 174.375 138.259 173.339 141.639 172.399C145.02 171.459 148.084 170.795 150.362 170.39C151.547 170.094 152.764 169.942 153.986 169.939Z" fill="#FAFAFA"/>
    <path d="M155.407 172.683C154.277 173.168 153.102 173.538 151.899 173.787C149.416 174.494 146.51 175.264 143.395 176.117L134.873 178.544C133.721 178.962 132.527 179.255 131.312 179.419C132.374 178.802 133.509 178.319 134.69 177.981C136.799 177.229 139.807 176.244 143.133 175.32C146.46 174.395 149.506 173.667 151.736 173.217C152.933 172.89 154.166 172.71 155.407 172.683Z" fill="#FAFAFA"/>
    <path d="M304.757 426.239L315.82 456.722L331.53 478.299C331.794 478.669 331.98 479.089 332.076 479.533C332.172 479.978 332.177 480.437 332.091 480.883C332.004 481.33 331.827 481.754 331.571 482.13C331.316 482.505 330.986 482.825 330.603 483.07C330.154 483.348 329.646 483.517 329.119 483.561C328.593 483.606 328.064 483.526 327.575 483.327C321.239 480.701 297.997 470.913 297.304 468.644C296.511 466.007 281.504 433.223 281.504 433.223L304.757 426.239Z" fill="#2E3E56"/>
    <g opacity="0.6">
        <path d="M330.647 483.07L296.556 466.6L297.059 467.885C297.481 468.982 298.271 469.898 299.293 470.477C302.087 471.985 309.909 475.975 327.485 483.361C327.989 483.569 328.537 483.652 329.08 483.602C329.623 483.551 330.146 483.368 330.603 483.07H330.647Z" fill="white"/>
    </g>
    <g opacity="0.6">
        <path d="M298.925 454.443C299.401 454.569 299.814 454.868 300.084 455.28C300.355 455.693 300.463 456.19 300.388 456.678C300.278 457.164 299.984 457.59 299.568 457.865C299.151 458.14 298.645 458.243 298.154 458.153C297.645 458.018 297.205 457.698 296.92 457.256C296.634 456.813 296.525 456.281 296.612 455.761C296.78 455.272 297.131 454.867 297.591 454.63C298.051 454.392 298.585 454.341 299.081 454.488" fill="white"/>
    </g>
    <path d="M318.557 472.555C318.919 471.337 319.511 470.199 320.3 469.203C321.719 467.616 323.552 467.382 323.518 467.181C323.485 466.979 323.038 467.013 322.289 467.181C321.321 467.445 320.448 467.977 319.77 468.717C319.091 469.456 318.636 470.372 318.457 471.36C318.356 472.097 318.479 472.555 318.557 472.555Z" fill="#263238"/>
    <path d="M322.289 475.762C322.479 475.84 323.072 474.477 324.457 473.416C325.359 472.85 326.295 472.342 327.262 471.896C327.262 471.706 325.586 471.628 324.021 472.857C322.457 474.086 322.099 475.74 322.289 475.762Z" fill="#263238"/>
    <path d="M312.534 468.924C312.736 469.013 313.652 466.924 315.641 465.091C317.63 463.259 319.786 462.499 319.719 462.298C319.652 462.097 317.294 462.566 315.16 464.532C313.026 466.499 312.356 468.901 312.534 468.924Z" fill="#263238"/>
    <path d="M308.4 459.94C308.545 460.096 309.942 458.744 312.088 457.817C314.233 456.889 316.155 456.699 316.144 456.532C316.132 456.364 314.088 456.152 311.797 457.169C309.506 458.185 308.3 459.839 308.4 459.94Z" fill="#263238"/>
    <path d="M304.947 451.079C305.104 451.213 306.389 449.559 308.724 448.766C311.059 447.973 313.082 448.42 313.127 448.218C313.171 448.017 312.668 447.883 311.819 447.749C310.699 447.604 309.559 447.722 308.493 448.095C307.426 448.467 306.46 449.083 305.674 449.895C305.07 450.543 304.847 451.023 304.947 451.079Z" fill="#263238"/>
    <path d="M307.998 447.101C307.937 446.705 307.796 446.325 307.584 445.984C307.077 444.977 306.374 444.08 305.517 443.347C304.939 442.744 304.176 442.35 303.349 442.23C303.075 442.218 302.803 442.291 302.571 442.439C302.339 442.587 302.158 442.802 302.053 443.056C301.863 443.553 301.863 444.102 302.053 444.598C302.512 445.605 303.312 446.418 304.312 446.892C305.312 447.367 306.447 447.472 307.517 447.191C308.558 446.905 309.491 446.316 310.195 445.498C310.9 444.68 311.345 443.67 311.473 442.598C311.504 442.329 311.478 442.056 311.395 441.798C311.312 441.539 311.175 441.302 310.992 441.101C310.785 440.919 310.526 440.807 310.252 440.779C309.978 440.751 309.701 440.809 309.461 440.945C308.783 441.398 308.236 442.023 307.875 442.755C307.323 443.733 306.945 444.799 306.757 445.906C306.665 446.31 306.665 446.73 306.757 447.135C307.092 445.69 307.642 444.304 308.389 443.023C308.73 442.402 309.217 441.873 309.808 441.481C309.937 441.4 310.089 441.364 310.24 441.378C310.392 441.392 310.534 441.456 310.646 441.559C310.756 441.698 310.837 441.858 310.883 442.029C310.929 442.2 310.94 442.378 310.914 442.554C310.773 443.475 310.37 444.336 309.754 445.035C309.138 445.734 308.335 446.242 307.439 446.498C306.544 446.727 305.598 446.644 304.756 446.262C303.915 445.88 303.23 445.222 302.813 444.397C302.645 444.049 302.613 443.651 302.724 443.28C302.78 443.138 302.879 443.018 303.007 442.935C303.136 442.853 303.287 442.813 303.439 442.822C304.13 442.924 304.774 443.236 305.282 443.716C306.379 444.676 307.298 445.822 307.998 447.101Z" fill="#263238"/>
    <path d="M351.475 418.261L350.526 443.034C350.526 443.034 375.376 452.33 375.645 456.923L327.597 456.789L327.463 418.138L351.475 418.261Z" fill="#2E3E56"/>
    <g opacity="0.6">
        <path d="M335.653 440.911C335.191 441.051 334.797 441.356 334.546 441.768C334.294 442.18 334.203 442.671 334.29 443.145C334.412 443.619 334.713 444.028 335.13 444.284C335.547 444.54 336.047 444.625 336.525 444.52C337.015 444.369 337.432 444.043 337.696 443.604C337.96 443.164 338.052 442.643 337.955 442.14C337.774 441.666 337.418 441.281 336.96 441.063C336.503 440.844 335.979 440.81 335.497 440.967" fill="white"/>
    </g>
    <g opacity="0.6">
        <path d="M327.552 456.789V452.934L373.768 454.476C373.768 454.476 375.902 455.415 375.656 456.923L327.552 456.789Z" fill="white"/>
    </g>
    <path d="M351.297 442.788C351.297 443.023 350.123 443.134 348.961 443.905C347.799 444.676 347.185 445.649 346.972 445.548C346.76 445.447 347.107 444.095 348.526 443.213C349.945 442.33 351.353 442.576 351.297 442.788Z" fill="#263238"/>
    <path d="M356.347 444.889C356.403 445.123 355.386 445.514 354.582 446.509C353.777 447.503 353.554 448.554 353.319 448.542C353.084 448.531 352.939 447.202 353.956 445.984C354.973 444.766 356.347 444.665 356.347 444.889Z" fill="#263238"/>
    <path d="M359.186 450.935C358.973 450.935 358.649 449.817 359.264 448.532C359.878 447.247 360.962 446.733 361.063 446.934C361.163 447.135 360.482 447.817 359.945 448.879C359.409 449.94 359.42 450.912 359.186 450.935Z" fill="#263238"/>
    <path d="M350.895 437.134C350.794 437.346 349.721 437.022 348.392 437.134C347.062 437.245 346.023 437.637 345.9 437.435C345.777 437.234 346.783 436.396 348.347 436.318C349.911 436.24 351.006 436.944 350.895 437.134Z" fill="#263238"/>
    <g opacity="0.3">
        <path d="M351.285 423.167L351.118 427.58L327.485 427.301L327.463 423.323L351.285 423.167Z" fill="black"/>
    </g>
    <path d="M350.995 432.128C350.204 432.339 349.372 432.339 348.581 432.128C347.716 431.966 346.872 431.703 346.067 431.346C345.589 431.133 345.126 430.887 344.682 430.609C344.414 430.453 344.17 430.261 343.955 430.039C343.803 429.871 343.71 429.657 343.692 429.43C343.674 429.204 343.731 428.978 343.855 428.787C343.973 428.624 344.127 428.491 344.305 428.398C344.484 428.305 344.681 428.254 344.883 428.251C345.189 428.25 345.495 428.295 345.788 428.385C346.3 428.514 346.801 428.686 347.285 428.899C348.103 429.265 348.857 429.76 349.52 430.363C350.637 431.402 351.017 432.274 350.939 432.33C350.861 432.385 350.291 431.67 349.151 430.81C348.493 430.311 347.772 429.901 347.006 429.592C346.561 429.411 346.101 429.268 345.631 429.167C345.117 429.022 344.682 429.022 344.514 429.246C344.346 429.469 344.458 429.368 344.514 429.514C344.672 429.679 344.853 429.822 345.05 429.938C345.46 430.206 345.885 430.448 346.324 430.665C347.07 431.033 347.848 431.333 348.648 431.559C349.444 431.687 350.229 431.877 350.995 432.128Z" fill="#263238"/>
    <path d="M350.682 432.463C350.239 431.767 350.02 430.952 350.057 430.128C350.021 429.236 350.135 428.345 350.392 427.491C350.553 426.989 350.759 426.503 351.006 426.038C351.141 425.724 351.353 425.45 351.623 425.241C351.892 425.031 352.211 424.894 352.548 424.842C352.763 424.846 352.971 424.911 353.15 425.03C353.328 425.149 353.468 425.316 353.554 425.513C353.675 425.798 353.758 426.099 353.8 426.407C353.884 426.943 353.884 427.49 353.8 428.027C353.661 428.926 353.304 429.778 352.761 430.507C351.822 431.748 350.839 432.027 350.816 431.949C350.794 431.871 351.565 431.379 352.28 430.183C352.7 429.505 352.963 428.741 353.051 427.949C353.118 427.485 353.118 427.015 353.051 426.552C352.984 426.049 352.794 425.636 352.604 425.68C352.414 425.725 351.956 426.06 351.755 426.474C351.518 426.888 351.316 427.321 351.152 427.77C350.882 428.544 350.724 429.353 350.682 430.172C350.571 431.547 350.816 432.418 350.682 432.463Z" fill="#263238"/>
    <path d="M327.507 299.516C299.092 302.455 261.425 306.321 261.425 306.321L266.565 352.57C266.565 352.57 321.898 337.943 321.507 339.161C321.116 340.379 324.077 437.559 324.077 437.559H357.398L358.023 327.462C358.082 323.554 357.312 319.677 355.764 316.087C354.215 312.497 351.924 309.276 349.041 306.636C346.158 303.996 342.749 301.996 339.037 300.769C335.326 299.542 331.396 299.115 327.507 299.516Z" fill="#263238"/>
    <path d="M193.442 318.176V332.512C193.442 342.278 204.56 352.626 214.315 352.626H221.869C227.813 352.626 237.132 348.29 241.982 344.804L244.865 342.692L279.571 450.196C279.571 450.196 319.272 443.079 319.272 441.827C319.272 440.576 292.387 353.776 279.973 313.494C274.9 297.046 257.279 287.482 240.999 293.057C240.451 293.247 239.881 293.46 239.334 293.683C221.5 300.812 193.442 318.176 193.442 318.176Z" fill="#263238"/>
    <path d="M319.228 441.816C319.159 441.696 319.103 441.568 319.06 441.436C318.937 441.135 318.792 440.755 318.613 440.319C318.233 439.302 317.686 437.805 317.038 435.849C315.708 431.972 313.886 426.307 311.674 419.301C307.204 405.3 301.305 385.891 294.846 364.437C291.628 353.699 288.578 343.474 285.784 334.155C284.398 329.507 283.091 325.082 281.862 320.937C281.236 318.866 280.64 316.873 280.074 314.959C279.57 313.113 278.966 311.297 278.264 309.517C277.007 306.491 275.099 303.779 272.677 301.572C270.839 299.899 268.874 298.371 266.8 297.002C265.101 295.885 263.749 295.024 262.822 294.466L261.782 293.806C261.655 293.743 261.538 293.66 261.436 293.561C261.571 293.601 261.699 293.661 261.816 293.739L262.933 294.32C263.883 294.834 265.269 295.628 267.001 296.734C269.127 298.052 271.138 299.547 273.012 301.204C275.532 303.417 277.525 306.166 278.845 309.249C279.571 311.042 280.198 312.873 280.722 314.735C281.314 316.646 281.918 318.646 282.555 320.713L286.555 333.898C289.36 343.206 292.444 353.43 295.684 364.157C302.143 385.578 307.975 404.976 312.266 419.1L317.384 435.715L318.814 440.185C318.959 440.665 319.071 441.045 319.172 441.358C319.272 441.671 319.25 441.816 319.228 441.816Z" fill="#455A64"/>
    <path d="M327.608 325.261C327.809 325.395 325.921 328.233 324.345 332.088C322.77 335.943 322.054 339.273 321.809 339.228C321.563 339.183 321.92 335.719 323.574 331.764C325.228 327.808 327.44 325.127 327.608 325.261Z" fill="#455A64"/>
    <path d="M333.999 329.731C334.089 329.954 331.228 331.217 328.245 333.575C325.261 335.932 323.339 338.402 323.138 338.256C322.937 338.111 324.613 335.351 327.731 332.926C330.848 330.502 333.921 329.53 333.999 329.731Z" fill="#455A64"/>
    <path d="M279.895 450.186C279.683 450.253 270.308 421.491 258.955 385.935C247.603 350.38 238.596 321.495 238.842 321.428C239.088 321.361 248.43 350.123 259.782 385.69C271.135 421.256 280.119 450.118 279.895 450.186Z" fill="#455A64"/>
    <path d="M237.312 282.476L350.895 283.571L372.08 223.701L289.46 224.259L270.286 278.095L237.312 278.598V282.476Z" fill="#455A64"/>
    <path d="M323.429 258.798C322.527 258.671 321.682 258.28 321.002 257.674C320.323 257.068 319.838 256.273 319.61 255.391C319.382 254.509 319.42 253.579 319.721 252.719C320.021 251.86 320.57 251.108 321.298 250.56C322.026 250.012 322.9 249.693 323.81 249.642C324.719 249.591 325.623 249.811 326.408 250.274C327.192 250.738 327.821 251.423 328.216 252.244C328.611 253.065 328.753 253.985 328.625 254.887C328.453 256.094 327.809 257.183 326.835 257.917C325.861 258.65 324.636 258.967 323.429 258.798Z" fill="white"/>
    <path d="M228.037 120.431C229.155 116.442 232.116 114.487 236.015 113.157C237.979 112.504 240.072 112.335 242.115 112.666C244.158 112.997 246.091 113.817 247.748 115.056C249.983 116.733 251.659 119.157 254.274 120.062C258.564 121.549 263.593 118.342 267.682 120.264C268.927 120.83 269.933 121.814 270.528 123.044C271.123 124.275 271.269 125.675 270.94 127.002C270.611 128.329 269.828 129.498 268.727 130.309C267.626 131.119 266.276 131.518 264.911 131.437C267.705 132.465 268.576 136.455 266.945 138.946C265.314 141.438 261.95 142.377 259.011 141.829C256.1 141.12 253.438 139.628 251.313 137.516C249.078 135.527 247.111 133.27 244.742 131.46C242.443 129.514 239.53 128.446 236.518 128.443C232.485 128.655 229.032 131.694 227.233 135.315C225.434 138.935 224.998 143.047 224.797 147.081C224.596 151.115 224.506 155.204 223.311 159.059C223.165 159.518 222.953 160.02 222.506 160.177C221.847 160.378 221.288 159.685 220.964 159.059C217.291 152.231 214.994 144.749 214.204 137.036C213.746 132.566 213.858 128.342 216.316 124.577C218.774 120.811 224.976 118.051 228.015 120.431" fill="#263238"/>
    <path d="M220.249 139.125L218.182 184.335C217.835 192.023 218.897 203.398 231.076 203.398C241.647 202.593 244.764 192.716 245.089 185.52C245.234 182.167 245.368 179.284 245.413 178.938C245.413 178.938 256.966 178.379 258.318 167.027C258.967 161.54 259.436 150.12 259.659 139.796C259.792 134.454 257.912 129.258 254.394 125.237C250.876 121.216 245.975 118.663 240.664 118.085L239.546 117.973C227.624 117.426 220.484 127.214 220.249 139.125Z" fill="#A88566"/>
    <path d="M245.446 178.792C240.188 178.335 235.185 176.319 231.077 173.004C231.077 173.004 233.703 181.552 245.156 181.742L245.446 178.792Z" fill="#815F41"/>
    <path d="M254.567 146.024C254.527 146.449 254.322 146.841 253.996 147.117C253.67 147.393 253.249 147.53 252.824 147.499C252.616 147.493 252.411 147.446 252.222 147.359C252.032 147.273 251.862 147.15 251.722 146.997C251.581 146.843 251.473 146.663 251.403 146.467C251.333 146.272 251.303 146.064 251.315 145.856C251.355 145.433 251.558 145.042 251.882 144.767C252.205 144.491 252.623 144.353 253.047 144.381C253.256 144.385 253.462 144.431 253.652 144.517C253.843 144.603 254.014 144.726 254.156 144.879C254.298 145.032 254.408 145.213 254.478 145.409C254.549 145.606 254.579 145.815 254.567 146.024Z" fill="#263238"/>
    <path d="M237.816 144.905C237.776 145.33 237.571 145.722 237.245 145.998C236.919 146.274 236.498 146.411 236.073 146.38C235.865 146.373 235.66 146.324 235.471 146.238C235.282 146.151 235.112 146.028 234.971 145.875C234.829 145.722 234.72 145.543 234.648 145.348C234.576 145.153 234.544 144.945 234.553 144.737C234.598 144.314 234.805 143.925 235.129 143.651C235.454 143.376 235.872 143.237 236.296 143.262C236.505 143.268 236.71 143.315 236.9 143.401C237.089 143.487 237.26 143.611 237.402 143.764C237.543 143.917 237.653 144.096 237.724 144.292C237.795 144.488 237.826 144.697 237.816 144.905Z" fill="#263238"/>
    <path d="M244.374 157.272C245.325 157.078 246.298 157.007 247.268 157.059C247.726 157.059 248.15 157.059 248.262 156.724C248.344 156.264 248.289 155.79 248.106 155.361C247.793 154.244 247.48 153.059 247.145 151.83C245.826 146.802 244.91 142.679 245.122 142.623C245.335 142.567 246.564 146.612 247.882 151.64C248.195 152.88 248.497 154.065 248.776 155.193C248.99 155.766 248.99 156.397 248.776 156.97C248.697 157.121 248.584 157.252 248.447 157.352C248.309 157.453 248.151 157.521 247.983 157.551C247.727 157.583 247.468 157.583 247.212 157.551C246.258 157.572 245.305 157.478 244.374 157.272Z" fill="#263238"/>
    <path d="M239.111 157.931C239.39 157.931 239.2 159.842 240.675 161.361C242.15 162.881 244.195 162.881 244.183 163.149C244.172 163.417 243.692 163.473 242.831 163.406C241.719 163.298 240.679 162.804 239.893 162.009C239.141 161.246 238.716 160.22 238.708 159.149C238.719 158.356 239.021 157.909 239.111 157.931Z" fill="#263238"/>
    <path d="M240.597 136.834C240.373 137.292 238.652 136.834 236.574 136.913C234.496 136.991 232.786 137.326 232.552 136.913C232.462 136.7 232.797 136.287 233.512 135.896C234.465 135.426 235.512 135.181 236.574 135.181C237.636 135.181 238.684 135.426 239.636 135.896C240.351 136.209 240.697 136.622 240.597 136.834Z" fill="#263238"/>
    <path d="M256.519 140.019C256.173 140.377 255.011 139.84 253.57 139.661C252.128 139.483 250.865 139.661 250.631 139.203C250.519 138.991 250.754 138.611 251.335 138.287C252.098 137.907 252.96 137.77 253.804 137.896C254.639 138.008 255.42 138.375 256.039 138.946C256.553 139.404 256.676 139.84 256.519 140.019Z" fill="#263238"/>
    <path d="M220.283 147.64C220.093 147.54 212.718 144.5 212.137 152.3C211.556 160.099 219.512 159.071 219.534 158.848C219.556 158.624 220.283 147.64 220.283 147.64Z" fill="#A88566"/>
    <path d="M217.377 155.718C217.377 155.718 217.232 155.808 216.997 155.897C216.663 156.005 216.301 155.985 215.981 155.841C215.501 155.482 215.124 155.003 214.889 154.451C214.653 153.9 214.567 153.296 214.64 152.701C214.671 152.033 214.851 151.381 215.165 150.791C215.258 150.55 215.409 150.336 215.603 150.166C215.798 149.997 216.031 149.877 216.282 149.818C216.441 149.792 216.605 149.821 216.745 149.9C216.885 149.979 216.994 150.104 217.053 150.254C217.143 150.478 217.053 150.634 217.12 150.645C217.187 150.657 217.299 150.534 217.266 150.198C217.236 150.003 217.137 149.824 216.986 149.696C216.887 149.606 216.77 149.537 216.643 149.493C216.517 149.448 216.383 149.43 216.249 149.439C215.923 149.481 215.614 149.606 215.35 149.802C215.086 149.997 214.876 150.257 214.74 150.556C214.363 151.207 214.149 151.939 214.115 152.69C214.048 154.266 214.74 155.797 215.847 156.21C216.051 156.285 216.27 156.312 216.486 156.291C216.703 156.27 216.912 156.2 217.098 156.087C217.344 155.908 217.4 155.729 217.377 155.718Z" fill="#815F41"/>
    <path d="M262.319 137.672C259.732 138.047 257.094 137.804 254.62 136.963C252.145 136.122 249.905 134.707 248.083 132.834C245.569 130.197 243.792 126.599 240.44 125.158C239.291 124.719 238.067 124.511 236.838 124.548C235.608 124.584 234.398 124.864 233.278 125.37C231.039 126.402 229.038 127.886 227.4 129.728C228.976 135.739 226.819 142.019 224.685 147.863C224.513 148.538 224.119 149.136 223.568 149.562C222.573 150.176 221.255 149.472 220.539 148.545C219.515 146.973 218.971 145.136 218.975 143.259C218.6 139.006 219.079 134.721 220.383 130.655C221.708 126.584 224.194 122.987 227.534 120.308C231.865 117.11 237.272 115.723 242.608 116.442C247.915 117.166 252.858 119.547 256.732 123.247C258.607 124.871 260.048 126.937 260.922 129.259" fill="#263238"/>
    <path d="M43.8351 378.002C47.9048 376.095 52.4766 375.535 56.8862 376.404C59.2551 376.795 61.7357 377.521 63.356 379.298C64.9762 381.075 65.2779 384.226 63.423 385.757C62.2244 386.563 60.7822 386.927 59.3445 386.785C55.8806 386.785 52.0368 386.137 49.288 388.226C47.7013 389.411 46.6509 391.388 44.8184 391.969C43.8751 392.186 42.8868 392.091 42.0022 391.698C41.1176 391.305 40.3845 390.636 39.913 389.79C39.0306 388.064 38.835 386.068 39.3655 384.203C39.5806 382.895 40.0961 381.654 40.8717 380.578C41.6472 379.502 42.6615 378.62 43.8351 378.002Z" fill="#8ACB66"/>
    <path d="M34.7059 360.38C37.1418 363.855 41.8795 362.704 44.0696 360.581C46.2597 358.458 47.1983 355.385 48.0364 352.447C49.9695 345.742 51.9137 338.703 50.4835 331.875C50.1339 329.806 49.2216 327.873 47.8464 326.288C47.1523 325.506 46.2645 324.919 45.2721 324.588C44.2798 324.256 43.2177 324.191 42.1924 324.4C39.8124 325.037 38.3262 327.372 37.2535 329.596C34.0933 336.162 32.4366 343.35 32.4041 350.636C32.4041 353.989 32.7951 357.587 34.7059 360.38Z" fill="#8ACB66"/>
    <path d="M28.0127 365.375C29.2648 363.739 30.0993 361.823 30.4439 359.792C30.7885 357.761 30.6329 355.677 29.9905 353.72C28.659 349.796 26.2693 346.316 23.085 343.664C19.5005 340.457 15.3257 337.978 10.7937 336.367C9.0208 335.655 7.11493 335.335 5.20673 335.428C4.25962 335.484 3.34023 335.769 2.52828 336.259C1.71632 336.75 1.03631 337.431 0.547199 338.244C-0.748976 340.725 0.49133 343.731 1.84337 346.189C4.2169 350.534 6.9294 354.685 9.95565 358.603C12.3916 361.732 15.1739 364.827 18.8948 366.246C22.6157 367.665 26.4484 367.498 28.415 364.928" fill="#8ACB66"/>
    <path d="M34.5382 412.852C34.67 412.337 34.745 411.809 34.7617 411.277C34.8735 410.16 35.0187 408.685 35.1863 406.964C35.3983 404.841 35.7191 402.73 36.1473 400.639C36.7165 398.091 37.4861 395.591 38.4491 393.164C39.4031 390.761 40.6895 388.505 42.2706 386.46C43.55 384.756 45.1959 383.363 47.0866 382.381C48.3601 381.74 49.7305 381.314 51.1427 381.118C51.6745 381.094 52.2024 381.015 52.7182 380.884C52.1869 380.83 51.6516 380.83 51.1204 380.884C49.6524 380.995 48.2172 381.374 46.8854 382.001C44.8993 382.931 43.1582 384.312 41.8013 386.035C40.1676 388.125 38.8499 390.445 37.8904 392.918C36.9266 395.381 36.1788 397.924 35.6556 400.516C35.2439 402.632 34.9603 404.77 34.8064 406.919C34.6723 408.752 34.6276 410.271 34.5941 411.266C34.5181 411.791 34.4994 412.323 34.5382 412.852Z" fill="#263238"/>
    <path d="M34.84 409.534C34.8663 409.293 34.8663 409.049 34.84 408.808C34.84 408.249 34.84 407.556 34.84 406.707C34.84 404.886 34.84 402.238 34.9406 398.997C35.097 392.494 35.6557 385.488 36.7396 375.621C37.7676 366.336 39.142 355.508 40.5946 348.513C40.8963 346.916 41.2092 345.474 41.5109 344.223C41.8126 342.971 42.036 341.876 42.2595 340.993C42.483 340.111 42.6283 339.485 42.7512 338.949C42.8254 338.717 42.8705 338.476 42.8853 338.233C42.7686 338.448 42.6821 338.677 42.6283 338.915C42.4606 339.44 42.2595 340.111 42.0137 340.926C41.7679 341.742 41.4662 342.882 41.1533 344.133C40.8404 345.385 40.4829 346.826 40.1365 348.413C38.3453 356.72 36.9951 365.116 36.0915 373.565C35.0412 383.499 34.5383 392.438 34.5383 398.997C34.5383 402.249 34.5383 404.897 34.6501 406.718C34.6501 407.568 34.7506 408.26 34.7842 408.808C34.7705 409.051 34.7893 409.296 34.84 409.534Z" fill="#263238"/>
    <path d="M34.8847 392.17C34.9431 391.426 34.9431 390.679 34.8847 389.935C34.7624 387.944 34.5386 385.959 34.2142 383.991C33.7384 381.089 33.1005 378.217 32.3035 375.387C31.3592 371.888 30.1489 368.466 28.6831 365.151C26.1692 359.042 22.5689 353.439 18.0567 348.614C17.2659 347.79 16.4263 347.014 15.5426 346.29C15.1515 345.966 14.8163 345.653 14.4252 345.396L13.4531 344.725C12.8709 344.282 12.2544 343.886 11.6094 343.541C13.7347 345.213 15.7536 347.015 17.6545 348.938C22.0221 353.801 25.5255 359.375 28.0127 365.42C29.4505 368.713 30.6674 372.099 31.6554 375.554C32.6052 378.739 33.2309 381.655 33.7114 384.114C34.1919 386.572 34.4265 388.583 34.583 390.002C34.6228 390.732 34.7237 391.457 34.8847 392.17Z" fill="#263238"/>
    <path d="M18.0902 422.809L19.8333 446.654H50.4723L52.2042 422.809H18.0902Z" fill="#263238"/>
    <path d="M55.8581 413.411H15.1292V422.808H55.8581V413.411Z" fill="#263238"/>
    <path d="M15.1292 445.749V448.352H17.0399H55.1877V445.749H15.1292Z" fill="#455A64"/>
    <path d="M18.9173 452.934L17.04 448.353H53.7352L51.5451 452.934H18.9173Z" fill="#455A64"/>
    <path d="M51.6456 430.609C51.6011 430.682 51.5526 430.753 51.5003 430.821L51.0422 431.435L49.2543 433.67L49.1761 433.771L49.0979 433.67L44.7177 427.603H44.9635L40.6504 433.782L40.5163 433.972L40.3599 433.793C38.7732 431.894 37.0077 429.837 35.2422 427.703H35.5327C35.4545 427.815 35.354 427.927 35.2534 428.05L30.6833 433.782L30.5268 433.972L30.3816 433.771L26.0684 427.659H26.3143L20.9955 433.782L20.9061 433.882L20.8279 433.76C20.1351 432.586 19.5764 431.648 19.1629 430.966L18.7383 430.217L18.6042 429.96C18.6042 429.96 18.6825 430.027 18.783 430.195L19.2635 430.91L21.0066 433.659H20.839L26.0796 427.536L26.2025 427.379L26.3254 427.547L30.6833 433.625H30.3927L34.9629 427.882L35.2422 427.524L35.3875 427.346L35.5327 427.524L40.6392 433.625H40.3487L44.7177 427.547L44.8406 427.368L44.9635 427.547L49.2543 433.67H49.0644L50.9304 431.435L51.4221 430.854C51.5673 430.664 51.6344 430.597 51.6456 430.609Z" fill="#E0E0E0"/>
    <path d="M52.6401 422.607C52.6401 422.719 44.9636 422.797 35.4881 422.797C26.0126 422.797 18.3473 422.719 18.3473 422.607C18.3473 422.496 26.0238 422.417 35.4881 422.417C44.9524 422.417 52.6401 422.607 52.6401 422.607Z" fill="#455A64"/>
    <path d="M54.182 448.609C54.182 448.71 45.8351 448.799 35.5551 448.799C25.2751 448.799 16.917 448.71 16.917 448.609C16.917 448.509 25.2639 448.419 35.5551 448.419C45.8463 448.419 54.182 448.509 54.182 448.609Z" fill="#263238"/>
    <path d="M416.362 174.055L395.076 263.077H401.032L421.994 174.055H416.362Z" fill="#263238"/>
    <path d="M408.183 232.65C407.803 234.282 417.826 282.81 417.826 282.81H412.999L405.435 244.349L408.183 232.65Z" fill="#263238"/>
    <path d="M479.07 346.994H379.365V452.688H479.07V346.994Z" fill="#2E3E56"/>
    <path d="M483.953 362.436H479.059V367.33H483.953V362.436Z" fill="#263238"/>
    <path d="M483.953 377.979H479.059V382.873H483.953V377.979Z" fill="#263238"/>
    <path d="M483.953 393.522H479.059V398.417H483.953V393.522Z" fill="#263238"/>
    <path d="M483.953 409.065H479.059V413.959H483.953V409.065Z" fill="#263238"/>
    <path d="M484.144 394.952C484.631 394.795 485.132 394.686 485.641 394.628C487.027 394.369 488.433 394.235 489.842 394.225C491.972 394.175 494.071 394.729 495.899 395.823C497.036 396.507 497.955 397.501 498.549 398.688C499.142 399.876 499.386 401.207 499.251 402.528C499.143 403.889 498.706 405.205 497.977 406.36C497.299 407.422 496.427 408.347 495.407 409.087C493.677 410.314 491.676 411.104 489.574 411.388C488.18 411.594 486.767 411.642 485.362 411.534C484.845 411.522 484.331 411.451 483.831 411.321C484.34 411.28 484.852 411.28 485.362 411.321C486.751 411.343 488.138 411.234 489.507 410.997C491.526 410.67 493.439 409.874 495.094 408.673C496.1 407.961 496.941 407.04 497.56 405.974C498.179 404.908 498.561 403.721 498.681 402.494C498.809 401.274 498.589 400.042 498.045 398.942C497.501 397.843 496.656 396.92 495.608 396.281C493.869 395.217 491.87 394.653 489.831 394.65C488.442 394.621 487.053 394.692 485.675 394.862C485.169 394.944 484.656 394.974 484.144 394.952Z" fill="#263238"/>
    <path d="M482.926 379.499C483.066 379.386 483.22 379.293 483.384 379.22C483.852 378.989 484.338 378.795 484.837 378.639C486.689 378.045 488.662 377.933 490.569 378.315C491.216 378.44 491.834 378.686 492.39 379.041C493.01 379.453 493.465 380.07 493.675 380.784C493.924 381.996 493.742 383.256 493.16 384.347C492.579 385.439 491.635 386.293 490.491 386.762C490.057 386.932 489.593 387.007 489.128 386.982C488.664 386.957 488.21 386.832 487.798 386.617C487.352 386.401 486.973 386.069 486.7 385.657C486.426 385.244 486.269 384.765 486.244 384.27C486.264 383.76 486.422 383.265 486.702 382.838C486.981 382.411 487.372 382.068 487.831 381.846C488.718 381.422 489.724 381.315 490.68 381.544C491.591 381.742 492.444 382.147 493.172 382.728C494.557 383.832 495.449 385.439 495.653 387.198C495.82 388.796 495.364 390.398 494.379 391.668C493.565 392.746 492.518 393.628 491.317 394.249C489.571 395.102 487.671 395.596 485.73 395.701C485.06 395.757 484.535 395.78 484.177 395.78C483.996 395.808 483.811 395.808 483.63 395.78C483.63 395.78 484.378 395.679 485.708 395.511C487.585 395.315 489.41 394.777 491.094 393.925C492.224 393.308 493.205 392.449 493.966 391.411C494.836 390.239 495.235 388.784 495.083 387.332C494.875 385.731 494.049 384.275 492.781 383.276C492.129 382.752 491.364 382.389 490.546 382.214C489.719 382.019 488.85 382.105 488.077 382.46C487.712 382.634 487.4 382.903 487.176 383.239C486.952 383.576 486.823 383.967 486.803 384.371C486.831 384.76 486.96 385.135 487.178 385.458C487.395 385.781 487.694 386.042 488.043 386.215C488.384 386.397 488.761 386.503 489.147 386.524C489.533 386.545 489.919 386.482 490.278 386.338C491.001 386.062 491.637 385.599 492.122 384.997C492.61 384.47 492.966 383.834 493.16 383.142C493.354 382.451 493.381 381.723 493.239 381.019C493.036 380.428 492.673 379.906 492.189 379.511C491.705 379.117 491.121 378.865 490.502 378.784C488.656 378.381 486.739 378.427 484.915 378.918C483.607 379.197 482.948 379.555 482.926 379.499Z" fill="#263238"/>
    <path d="M482.97 364.336C483.324 364.189 483.705 364.12 484.088 364.135C485.1 364.062 486.117 364.187 487.082 364.503C488.527 364.99 489.812 365.859 490.803 367.018C492.018 368.458 492.701 370.273 492.736 372.158C492.809 374.04 492.242 375.891 491.127 377.409C490.2 378.633 488.956 379.579 487.529 380.147C486.591 380.539 485.585 380.744 484.568 380.75C484.19 380.788 483.809 380.743 483.451 380.616C484.787 380.575 486.104 380.291 487.339 379.778C488.65 379.183 489.786 378.259 490.636 377.097C491.639 375.66 492.153 373.939 492.1 372.188C492.048 370.437 491.432 368.749 490.345 367.375C489.421 366.274 488.233 365.425 486.892 364.906C485.63 364.48 484.301 364.287 482.97 364.336Z" fill="#263238"/>
    <path d="M408.965 290.833C409.317 291.459 409.598 292.122 409.803 292.811C410.409 294.771 410.854 296.778 411.133 298.811C411.546 301.448 411.893 304.7 412.25 308.465C412.608 312.231 412.909 316.544 413.513 321.271C413.669 322.444 413.859 323.651 414.105 324.869C414.333 326.108 414.708 327.316 415.222 328.467C415.884 329.588 416.709 330.605 417.67 331.484C420.74 334.435 424.708 336.275 428.944 336.713C431.964 337.061 435.02 336.533 437.749 335.193C439.167 334.497 440.413 333.494 441.397 332.257C442.381 331.021 443.077 329.581 443.437 328.042C443.796 326.461 443.68 324.808 443.101 323.293C442.461 321.768 441.384 320.465 440.006 319.55C438.605 318.61 436.975 318.07 435.291 317.986C433.587 317.891 431.903 318.384 430.52 319.382C429.833 319.879 429.277 320.534 428.899 321.293C428.535 322.05 428.426 322.905 428.587 323.729C428.782 324.572 429.16 325.361 429.695 326.041C430.23 326.721 430.909 327.274 431.682 327.662C433.277 328.445 435.006 328.923 436.777 329.07C438.534 329.293 440.302 329.416 442.073 329.439C445.553 329.46 449.032 329.266 452.488 328.858C459.281 328.098 465.896 327.003 472.187 326.936C478.478 326.869 484.635 327.74 489.741 330.288C492.219 331.467 494.437 333.127 496.267 335.171C497.935 337.085 499.089 339.392 499.619 341.875C500.514 346.164 499.819 350.632 497.664 354.446C496.032 357.285 493.764 359.706 491.038 361.519C489.335 362.672 487.496 363.611 485.562 364.313C484.891 364.561 484.204 364.766 483.506 364.927L484.02 364.737C484.367 364.637 484.87 364.447 485.518 364.201C487.424 363.461 489.236 362.497 490.915 361.329C493.58 359.507 495.793 357.099 497.384 354.29C499.442 350.542 500.088 346.181 499.206 341.998C498.651 339.584 497.498 337.348 495.854 335.495C494.054 333.507 491.878 331.897 489.451 330.757C484.423 328.322 478.378 327.405 472.12 327.551C465.863 327.696 459.292 328.724 452.465 329.495C448.988 329.923 445.487 330.124 441.984 330.098C440.191 330.075 438.4 329.952 436.621 329.729C434.778 329.574 432.981 329.074 431.324 328.254C430.483 327.82 429.747 327.207 429.168 326.458C428.589 325.709 428.181 324.842 427.972 323.919C427.791 322.973 427.916 321.995 428.33 321.126C428.749 320.283 429.366 319.554 430.129 319.002C431.618 317.923 433.432 317.387 435.269 317.483C437.061 317.579 438.795 318.158 440.286 319.159C441.755 320.138 442.902 321.529 443.582 323.159C444.2 324.782 444.324 326.55 443.939 328.243C443.561 329.859 442.827 331.371 441.791 332.668C440.755 333.965 439.443 335.015 437.95 335.741C435.128 337.127 431.965 337.666 428.844 337.294C425.914 336.99 423.093 336.019 420.597 334.456C419.408 333.726 418.303 332.868 417.301 331.897C416.305 330.98 415.453 329.918 414.776 328.746C414.255 327.555 413.88 326.306 413.658 325.025C413.42 323.796 413.23 322.589 413.088 321.405C412.507 316.656 412.228 312.354 411.904 308.577C411.58 304.8 411.267 301.56 410.898 298.923C410.644 296.895 410.237 294.889 409.68 292.923C409.533 292.41 409.358 291.907 409.155 291.414C409.08 291.224 409.017 291.03 408.965 290.833Z" fill="#263238"/>
    <path d="M473.394 448.307C473.394 448.307 473.394 448.151 473.394 447.838C473.394 447.525 473.394 447.078 473.394 446.497C473.394 445.29 473.394 443.536 473.394 441.257C473.394 436.664 473.394 429.96 473.327 421.456C473.327 404.439 473.249 380.191 473.193 351.184L473.45 351.441H383.332L383.623 351.15C383.623 386.907 383.623 420.227 383.623 448.274L383.377 448.028L448.677 448.151L466.991 448.218H471.83H473.506H471.886L466.969 448.307L448.722 448.374L383.254 448.497H382.997V448.307C382.997 420.261 382.997 386.851 382.997 351.184V350.893H383.299H473.416H473.673V351.094C473.618 380.146 473.573 404.472 473.539 421.49C473.539 429.982 473.539 436.664 473.472 441.234C473.472 443.469 473.472 445.235 473.472 446.43C473.472 447 473.472 447.436 473.472 447.749C473.472 448.062 473.394 448.307 473.394 448.307Z" fill="#263238"/>
    <path d="M447.973 363.084C447.975 363.145 447.964 363.206 447.942 363.263C447.919 363.319 447.886 363.371 447.843 363.415C447.8 363.459 447.749 363.494 447.693 363.517C447.637 363.541 447.576 363.553 447.515 363.553C447.448 363.564 447.38 363.559 447.315 363.541C447.25 363.522 447.189 363.49 447.138 363.446C447.086 363.402 447.045 363.347 447.017 363.286C446.988 363.224 446.974 363.157 446.974 363.089C446.974 363.022 446.988 362.955 447.017 362.893C447.045 362.832 447.086 362.777 447.138 362.733C447.189 362.689 447.25 362.656 447.315 362.638C447.38 362.619 447.448 362.615 447.515 362.626C447.637 362.626 447.753 362.674 447.839 362.76C447.925 362.846 447.973 362.962 447.973 363.084Z" fill="#263238"/>
    <path d="M450.555 363.084C450.556 363.145 450.545 363.206 450.523 363.263C450.501 363.319 450.467 363.371 450.424 363.415C450.382 363.459 450.331 363.494 450.274 363.517C450.218 363.541 450.158 363.553 450.096 363.553C450.03 363.564 449.961 363.559 449.896 363.541C449.831 363.522 449.77 363.49 449.719 363.446C449.668 363.402 449.626 363.347 449.598 363.286C449.57 363.224 449.555 363.157 449.555 363.089C449.555 363.022 449.57 362.955 449.598 362.893C449.626 362.832 449.668 362.777 449.719 362.733C449.77 362.689 449.831 362.656 449.896 362.638C449.961 362.619 450.03 362.615 450.096 362.626C450.218 362.626 450.334 362.674 450.42 362.76C450.506 362.846 450.555 362.962 450.555 363.084Z" fill="#263238"/>
    <path d="M453.102 363.084C453.104 363.145 453.093 363.206 453.071 363.263C453.048 363.319 453.015 363.371 452.972 363.415C452.93 363.459 452.879 363.494 452.822 363.517C452.766 363.541 452.705 363.553 452.644 363.553C452.577 363.564 452.509 363.559 452.444 363.541C452.379 363.522 452.318 363.49 452.267 363.446C452.215 363.402 452.174 363.347 452.146 363.286C452.117 363.224 452.103 363.157 452.103 363.089C452.103 363.022 452.117 362.955 452.146 362.893C452.174 362.832 452.215 362.777 452.267 362.733C452.318 362.689 452.379 362.656 452.444 362.638C452.509 362.619 452.577 362.615 452.644 362.626C452.766 362.626 452.882 362.674 452.968 362.76C453.054 362.846 453.102 362.962 453.102 363.084Z" fill="#263238"/>
    <path d="M455.65 363.084C455.652 363.177 455.627 363.269 455.576 363.347C455.526 363.426 455.454 363.488 455.368 363.525C455.283 363.562 455.188 363.573 455.096 363.556C455.004 363.54 454.92 363.496 454.853 363.431C454.786 363.365 454.74 363.282 454.721 363.191C454.702 363.099 454.711 363.004 454.746 362.918C454.781 362.831 454.841 362.757 454.919 362.705C454.996 362.653 455.087 362.626 455.181 362.625C455.303 362.625 455.421 362.673 455.509 362.759C455.596 362.845 455.647 362.961 455.65 363.084Z" fill="#263238"/>
    <path d="M458.197 363.084C458.197 363.208 458.148 363.327 458.06 363.415C457.972 363.503 457.853 363.553 457.728 363.553C457.618 363.536 457.517 363.479 457.444 363.394C457.371 363.309 457.331 363.201 457.331 363.089C457.331 362.977 457.371 362.869 457.444 362.784C457.517 362.699 457.618 362.643 457.728 362.625C457.851 362.625 457.968 362.673 458.056 362.759C458.144 362.845 458.195 362.961 458.197 363.084Z" fill="#263238"/>
    <path d="M460.745 363.084C460.745 363.208 460.696 363.327 460.608 363.415C460.52 363.503 460.401 363.553 460.276 363.553C460.165 363.536 460.065 363.479 459.992 363.394C459.919 363.309 459.879 363.201 459.879 363.089C459.879 362.977 459.919 362.869 459.992 362.784C460.065 362.699 460.165 362.643 460.276 362.625C460.399 362.625 460.516 362.673 460.604 362.759C460.692 362.845 460.742 362.961 460.745 363.084Z" fill="#263238"/>
    <path d="M463.293 363.084C463.293 363.208 463.243 363.327 463.155 363.415C463.067 363.503 462.948 363.553 462.824 363.553C462.713 363.536 462.612 363.479 462.539 363.394C462.467 363.309 462.427 363.201 462.427 363.089C462.427 362.977 462.467 362.869 462.539 362.784C462.612 362.699 462.713 362.643 462.824 362.625C462.946 362.625 463.064 362.673 463.152 362.759C463.239 362.845 463.29 362.961 463.293 363.084Z" fill="#263238"/>
    <path d="M461.651 365.263C461.904 365.263 462.109 365.058 462.109 364.805C462.109 364.552 461.904 364.347 461.651 364.347C461.397 364.347 461.192 364.552 461.192 364.805C461.192 365.058 461.397 365.263 461.651 365.263Z" fill="#263238"/>
    <path d="M459.047 365.263C459.3 365.263 459.505 365.058 459.505 364.805C459.505 364.552 459.3 364.347 459.047 364.347C458.794 364.347 458.589 364.552 458.589 364.805C458.589 365.058 458.794 365.263 459.047 365.263Z" fill="#263238"/>
    <path d="M456.913 364.805C456.913 364.865 456.901 364.925 456.878 364.981C456.855 365.036 456.821 365.087 456.778 365.129C456.736 365.172 456.685 365.205 456.63 365.229C456.574 365.252 456.515 365.263 456.454 365.263C456.393 365.265 456.333 365.254 456.276 365.232C456.219 365.209 456.167 365.176 456.123 365.133C456.079 365.091 456.045 365.039 456.021 364.983C455.997 364.927 455.985 364.866 455.985 364.805C455.985 364.744 455.997 364.683 456.021 364.626C456.044 364.569 456.079 364.517 456.123 364.473C456.166 364.43 456.218 364.395 456.275 364.372C456.332 364.348 456.393 364.336 456.454 364.336C456.516 364.336 456.576 364.348 456.632 364.372C456.689 364.396 456.74 364.43 456.782 364.474C456.825 364.518 456.859 364.57 456.881 364.626C456.903 364.683 456.914 364.744 456.913 364.805Z" fill="#263238"/>
    <path d="M453.84 365.263C454.093 365.263 454.298 365.058 454.298 364.805C454.298 364.552 454.093 364.347 453.84 364.347C453.587 364.347 453.382 364.552 453.382 364.805C453.382 365.058 453.587 365.263 453.84 365.263Z" fill="#263238"/>
    <path d="M451.225 365.263C451.478 365.263 451.683 365.058 451.683 364.805C451.683 364.552 451.478 364.347 451.225 364.347C450.972 364.347 450.767 364.552 450.767 364.805C450.767 365.058 450.972 365.263 451.225 365.263Z" fill="#263238"/>
    <path d="M449.091 364.805C449.091 364.866 449.079 364.927 449.055 364.983C449.031 365.039 448.997 365.091 448.953 365.133C448.909 365.176 448.857 365.209 448.8 365.232C448.743 365.254 448.683 365.265 448.622 365.263C448.5 365.263 448.384 365.215 448.298 365.129C448.212 365.043 448.163 364.927 448.163 364.805C448.162 364.744 448.173 364.683 448.195 364.626C448.217 364.57 448.251 364.518 448.294 364.474C448.336 364.43 448.387 364.396 448.444 364.372C448.5 364.348 448.56 364.336 448.622 364.336C448.683 364.336 448.744 364.348 448.801 364.372C448.858 364.395 448.91 364.43 448.953 364.473C448.997 364.517 449.032 364.569 449.055 364.626C449.079 364.683 449.091 364.744 449.091 364.805Z" fill="#263238"/>
    <path d="M447.974 366.738C447.974 366.859 447.925 366.976 447.839 367.062C447.753 367.148 447.637 367.196 447.515 367.196C447.454 367.198 447.394 367.187 447.337 367.164C447.28 367.142 447.228 367.109 447.184 367.066C447.141 367.023 447.106 366.972 447.082 366.916C447.058 366.859 447.046 366.799 447.046 366.738C447.046 366.613 447.096 366.494 447.184 366.406C447.272 366.318 447.391 366.269 447.515 366.269C447.577 366.269 447.637 366.281 447.693 366.304C447.75 366.328 447.801 366.363 447.843 366.407C447.886 366.45 447.92 366.502 447.942 366.559C447.964 366.616 447.975 366.677 447.974 366.738Z" fill="#263238"/>
    <path d="M450.555 366.738C450.555 366.859 450.507 366.976 450.421 367.062C450.335 367.148 450.218 367.196 450.097 367.196C450.036 367.198 449.975 367.187 449.918 367.164C449.861 367.142 449.809 367.109 449.766 367.066C449.722 367.023 449.687 366.972 449.663 366.916C449.64 366.859 449.627 366.799 449.627 366.738C449.627 366.613 449.677 366.494 449.765 366.406C449.853 366.318 449.972 366.269 450.097 366.269C450.158 366.269 450.218 366.281 450.275 366.304C450.331 366.328 450.382 366.363 450.425 366.407C450.467 366.45 450.501 366.502 450.523 366.559C450.546 366.616 450.556 366.677 450.555 366.738Z" fill="#263238"/>
    <path d="M453.102 366.738C453.102 366.859 453.054 366.976 452.968 367.062C452.882 367.148 452.766 367.196 452.644 367.196C452.583 367.198 452.522 367.187 452.465 367.164C452.408 367.142 452.357 367.109 452.313 367.066C452.269 367.023 452.234 366.972 452.211 366.916C452.187 366.859 452.175 366.799 452.175 366.738C452.175 366.676 452.187 366.615 452.211 366.558C452.234 366.501 452.269 366.45 452.312 366.406C452.356 366.362 452.408 366.328 452.465 366.304C452.521 366.281 452.582 366.269 452.644 366.269C452.705 366.269 452.766 366.281 452.822 366.304C452.878 366.328 452.929 366.363 452.972 366.407C453.015 366.45 453.048 366.502 453.071 366.559C453.093 366.616 453.104 366.677 453.102 366.738Z" fill="#263238"/>
    <path d="M455.65 366.738C455.633 366.849 455.577 366.95 455.492 367.023C455.407 367.095 455.298 367.135 455.186 367.135C455.074 367.135 454.966 367.095 454.881 367.023C454.796 366.95 454.74 366.849 454.723 366.738C454.712 366.671 454.716 366.603 454.735 366.538C454.753 366.473 454.786 366.412 454.83 366.361C454.874 366.309 454.929 366.268 454.99 366.24C455.052 366.211 455.119 366.197 455.186 366.197C455.254 366.197 455.321 366.211 455.383 366.24C455.444 366.268 455.499 366.309 455.543 366.361C455.587 366.412 455.619 366.473 455.638 366.538C455.656 366.603 455.66 366.671 455.65 366.738Z" fill="#263238"/>
    <path d="M458.198 366.738C458.198 366.799 458.186 366.859 458.162 366.916C458.138 366.972 458.103 367.023 458.06 367.066C458.016 367.109 457.964 367.142 457.907 367.164C457.85 367.187 457.79 367.198 457.729 367.196C457.607 367.196 457.491 367.148 457.405 367.062C457.319 366.976 457.27 366.859 457.27 366.738C457.269 366.677 457.28 366.616 457.302 366.559C457.324 366.502 457.358 366.45 457.401 366.407C457.443 366.363 457.494 366.328 457.551 366.304C457.607 366.281 457.667 366.269 457.729 366.269C457.853 366.269 457.972 366.318 458.06 366.406C458.148 366.494 458.198 366.613 458.198 366.738Z" fill="#263238"/>
    <path d="M460.745 366.738C460.745 366.799 460.733 366.859 460.71 366.916C460.686 366.972 460.651 367.023 460.607 367.066C460.564 367.109 460.512 367.142 460.455 367.164C460.398 367.187 460.337 367.198 460.276 367.196C460.155 367.196 460.038 367.148 459.952 367.062C459.866 366.976 459.818 366.859 459.818 366.738C459.817 366.677 459.827 366.616 459.85 366.559C459.872 366.502 459.905 366.45 459.948 366.407C459.991 366.363 460.042 366.328 460.098 366.304C460.155 366.281 460.215 366.269 460.276 366.269C460.401 366.269 460.52 366.318 460.608 366.406C460.696 366.494 460.745 366.613 460.745 366.738Z" fill="#263238"/>
    <path d="M463.293 366.738C463.293 366.799 463.281 366.859 463.257 366.916C463.233 366.972 463.199 367.023 463.155 367.066C463.111 367.109 463.059 367.142 463.003 367.164C462.946 367.187 462.885 367.198 462.824 367.196C462.764 367.196 462.704 367.184 462.648 367.161C462.593 367.138 462.542 367.104 462.5 367.062C462.457 367.019 462.424 366.969 462.4 366.913C462.377 366.858 462.366 366.798 462.366 366.738C462.364 366.677 462.375 366.616 462.397 366.559C462.42 366.502 462.453 366.45 462.496 366.407C462.538 366.363 462.589 366.328 462.646 366.304C462.702 366.281 462.763 366.269 462.824 366.269C462.948 366.269 463.068 366.318 463.156 366.406C463.244 366.494 463.293 366.613 463.293 366.738Z" fill="#263238"/>
    <path d="M462.12 368.448C462.12 368.572 462.071 368.692 461.983 368.78C461.895 368.868 461.775 368.917 461.651 368.917C461.59 368.917 461.529 368.905 461.473 368.881C461.416 368.858 461.365 368.823 461.323 368.779C461.28 368.735 461.247 368.684 461.224 368.627C461.202 368.57 461.191 368.509 461.193 368.448C461.193 368.327 461.241 368.21 461.327 368.124C461.413 368.038 461.529 367.99 461.651 367.99C461.712 367.988 461.773 367.999 461.829 368.021C461.886 368.044 461.938 368.077 461.982 368.12C462.026 368.163 462.06 368.214 462.084 368.27C462.108 368.326 462.12 368.387 462.12 368.448Z" fill="#263238"/>
    <path d="M459.505 368.448C459.507 368.509 459.496 368.57 459.473 368.627C459.451 368.684 459.418 368.735 459.375 368.779C459.332 368.823 459.281 368.858 459.225 368.881C459.169 368.905 459.108 368.917 459.047 368.917C458.922 368.917 458.803 368.868 458.715 368.78C458.627 368.692 458.578 368.572 458.578 368.448C458.578 368.387 458.59 368.326 458.614 368.27C458.637 368.214 458.672 368.163 458.716 368.12C458.759 368.077 458.811 368.044 458.868 368.021C458.925 367.999 458.986 367.988 459.047 367.99C459.168 367.99 459.285 368.038 459.371 368.124C459.457 368.21 459.505 368.327 459.505 368.448Z" fill="#263238"/>
    <path d="M456.913 368.448C456.914 368.509 456.903 368.57 456.881 368.627C456.859 368.684 456.825 368.735 456.782 368.779C456.74 368.823 456.689 368.858 456.632 368.881C456.576 368.905 456.516 368.917 456.454 368.917C456.393 368.917 456.332 368.905 456.275 368.882C456.218 368.858 456.166 368.823 456.123 368.78C456.079 368.736 456.044 368.685 456.021 368.628C455.997 368.571 455.985 368.51 455.985 368.448C455.985 368.387 455.997 368.326 456.021 368.27C456.045 368.214 456.079 368.163 456.123 368.12C456.167 368.077 456.219 368.044 456.276 368.021C456.333 367.999 456.393 367.988 456.454 367.99C456.515 367.99 456.574 368.002 456.63 368.025C456.685 368.048 456.736 368.082 456.778 368.124C456.821 368.167 456.855 368.217 456.878 368.273C456.901 368.328 456.913 368.388 456.913 368.448Z" fill="#263238"/>
    <path d="M454.298 368.448C454.3 368.509 454.289 368.57 454.266 368.627C454.244 368.684 454.211 368.735 454.168 368.779C454.125 368.823 454.074 368.858 454.018 368.881C453.962 368.905 453.901 368.917 453.84 368.917C453.715 368.917 453.596 368.868 453.508 368.78C453.42 368.692 453.371 368.572 453.371 368.448C453.371 368.387 453.383 368.326 453.407 368.27C453.43 368.214 453.465 368.163 453.509 368.12C453.552 368.077 453.604 368.044 453.661 368.021C453.718 367.999 453.779 367.988 453.84 367.99C453.961 367.99 454.078 368.038 454.164 368.124C454.25 368.21 454.298 368.327 454.298 368.448Z" fill="#263238"/>
    <path d="M451.694 368.447C451.705 368.514 451.701 368.583 451.682 368.648C451.664 368.713 451.631 368.773 451.587 368.825C451.543 368.876 451.489 368.918 451.427 368.946C451.365 368.974 451.299 368.989 451.231 368.989C451.163 368.989 451.096 368.974 451.035 368.946C450.973 368.918 450.918 368.876 450.874 368.825C450.83 368.773 450.798 368.713 450.779 368.648C450.761 368.583 450.757 368.514 450.767 368.447C450.784 368.337 450.84 368.236 450.926 368.163C451.011 368.09 451.119 368.05 451.231 368.05C451.343 368.05 451.451 368.09 451.536 368.163C451.621 368.236 451.677 368.337 451.694 368.447Z" fill="#263238"/>
    <path d="M449.091 368.448C449.091 368.572 449.041 368.692 448.953 368.78C448.865 368.868 448.746 368.917 448.622 368.917C448.56 368.917 448.5 368.905 448.444 368.881C448.387 368.858 448.336 368.823 448.294 368.779C448.251 368.735 448.217 368.684 448.195 368.627C448.173 368.57 448.162 368.509 448.163 368.448C448.163 368.327 448.212 368.21 448.298 368.124C448.384 368.038 448.5 367.99 448.622 367.99C448.683 367.988 448.743 367.999 448.8 368.021C448.857 368.044 448.909 368.077 448.953 368.12C448.997 368.163 449.031 368.214 449.055 368.27C449.079 368.326 449.091 368.387 449.091 368.448Z" fill="#263238"/>
    <path d="M447.974 370.381C447.975 370.442 447.964 370.503 447.942 370.559C447.92 370.616 447.886 370.668 447.843 370.712C447.801 370.756 447.75 370.79 447.693 370.814C447.637 370.838 447.577 370.85 447.515 370.85C447.391 370.85 447.272 370.8 447.184 370.712C447.096 370.624 447.046 370.505 447.046 370.381C447.046 370.32 447.058 370.259 447.082 370.203C447.106 370.146 447.141 370.095 447.184 370.053C447.228 370.01 447.28 369.976 447.337 369.954C447.394 369.932 447.454 369.921 447.515 369.922C447.637 369.922 447.753 369.971 447.839 370.057C447.925 370.143 447.974 370.259 447.974 370.381Z" fill="#263238"/>
    <path d="M450.555 370.381C450.556 370.442 450.546 370.503 450.523 370.559C450.501 370.616 450.467 370.668 450.425 370.712C450.382 370.756 450.331 370.79 450.275 370.814C450.218 370.838 450.158 370.85 450.097 370.85C449.972 370.85 449.853 370.8 449.765 370.712C449.677 370.624 449.627 370.505 449.627 370.381C449.627 370.32 449.64 370.259 449.663 370.203C449.687 370.146 449.722 370.095 449.766 370.053C449.809 370.01 449.861 369.976 449.918 369.954C449.975 369.932 450.036 369.921 450.097 369.922C450.218 369.922 450.335 369.971 450.421 370.057C450.507 370.143 450.555 370.259 450.555 370.381Z" fill="#263238"/>
    <path d="M453.102 370.381C453.104 370.442 453.093 370.503 453.071 370.559C453.048 370.616 453.015 370.668 452.972 370.712C452.929 370.756 452.878 370.79 452.822 370.814C452.766 370.838 452.705 370.85 452.644 370.85C452.582 370.85 452.521 370.838 452.465 370.814C452.408 370.791 452.356 370.756 452.312 370.712C452.269 370.669 452.234 370.617 452.211 370.56C452.187 370.503 452.175 370.442 452.175 370.381C452.175 370.32 452.187 370.259 452.211 370.203C452.234 370.146 452.269 370.095 452.313 370.053C452.357 370.01 452.408 369.976 452.465 369.954C452.522 369.932 452.583 369.921 452.644 369.922C452.766 369.922 452.882 369.971 452.968 370.057C453.054 370.143 453.102 370.259 453.102 370.381Z" fill="#263238"/>
    <path d="M455.65 370.381C455.66 370.447 455.656 370.516 455.638 370.581C455.619 370.646 455.587 370.707 455.543 370.758C455.499 370.809 455.444 370.851 455.383 370.879C455.321 370.907 455.254 370.922 455.186 370.922C455.119 370.922 455.052 370.907 454.99 370.879C454.929 370.851 454.874 370.809 454.83 370.758C454.786 370.707 454.753 370.646 454.735 370.581C454.716 370.516 454.712 370.447 454.723 370.381C454.74 370.27 454.796 370.169 454.881 370.096C454.966 370.023 455.074 369.983 455.186 369.983C455.298 369.983 455.407 370.023 455.492 370.096C455.577 370.169 455.633 370.27 455.65 370.381Z" fill="#263238"/>
    <path d="M458.198 370.381C458.198 370.505 458.148 370.624 458.06 370.712C457.972 370.8 457.853 370.85 457.729 370.85C457.667 370.85 457.607 370.838 457.551 370.814C457.494 370.79 457.443 370.756 457.401 370.712C457.358 370.668 457.324 370.616 457.302 370.559C457.28 370.503 457.269 370.442 457.27 370.381C457.27 370.259 457.319 370.143 457.405 370.057C457.491 369.971 457.607 369.922 457.729 369.922C457.79 369.921 457.85 369.932 457.907 369.954C457.964 369.976 458.016 370.01 458.06 370.053C458.103 370.095 458.138 370.146 458.162 370.203C458.186 370.259 458.198 370.32 458.198 370.381Z" fill="#263238"/>
    <path d="M460.745 370.381C460.745 370.505 460.696 370.624 460.608 370.712C460.52 370.8 460.401 370.85 460.276 370.85C460.215 370.85 460.155 370.838 460.098 370.814C460.042 370.79 459.991 370.756 459.948 370.712C459.905 370.668 459.872 370.616 459.85 370.559C459.827 370.503 459.817 370.442 459.818 370.381C459.818 370.259 459.866 370.143 459.952 370.057C460.038 369.971 460.155 369.922 460.276 369.922C460.337 369.921 460.398 369.932 460.455 369.954C460.512 369.976 460.564 370.01 460.607 370.053C460.651 370.095 460.686 370.146 460.71 370.203C460.733 370.259 460.745 370.32 460.745 370.381Z" fill="#263238"/>
    <path d="M463.293 370.381C463.293 370.505 463.244 370.624 463.156 370.712C463.068 370.8 462.948 370.85 462.824 370.85C462.763 370.85 462.702 370.838 462.646 370.814C462.589 370.79 462.538 370.756 462.496 370.712C462.453 370.668 462.42 370.616 462.397 370.559C462.375 370.503 462.364 370.442 462.366 370.381C462.366 370.32 462.377 370.261 462.4 370.205C462.424 370.15 462.457 370.099 462.5 370.057C462.542 370.014 462.593 369.98 462.648 369.957C462.704 369.934 462.764 369.922 462.824 369.922C462.885 369.921 462.946 369.932 463.003 369.954C463.059 369.976 463.111 370.01 463.155 370.053C463.199 370.095 463.233 370.146 463.257 370.203C463.281 370.259 463.293 370.32 463.293 370.381Z" fill="#263238"/>
    <path d="M461.651 372.56C461.904 372.56 462.109 372.355 462.109 372.102C462.109 371.849 461.904 371.644 461.651 371.644C461.397 371.644 461.192 371.849 461.192 372.102C461.192 372.355 461.397 372.56 461.651 372.56Z" fill="#263238"/>
    <path d="M459.047 372.56C459.3 372.56 459.505 372.355 459.505 372.102C459.505 371.849 459.3 371.644 459.047 371.644C458.794 371.644 458.589 371.849 458.589 372.102C458.589 372.355 458.794 372.56 459.047 372.56Z" fill="#263238"/>
    <path d="M456.912 372.101C456.912 372.161 456.901 372.221 456.878 372.276C456.855 372.332 456.821 372.382 456.778 372.425C456.736 372.467 456.685 372.501 456.63 372.524C456.574 372.547 456.515 372.559 456.454 372.559C456.387 372.569 456.319 372.565 456.254 372.547C456.189 372.528 456.128 372.496 456.077 372.452C456.025 372.408 455.984 372.353 455.956 372.291C455.928 372.23 455.913 372.163 455.913 372.095C455.913 372.028 455.928 371.961 455.956 371.899C455.984 371.838 456.025 371.783 456.077 371.739C456.128 371.695 456.189 371.662 456.254 371.644C456.319 371.625 456.387 371.621 456.454 371.632C456.515 371.632 456.576 371.644 456.632 371.667C456.689 371.691 456.74 371.726 456.782 371.77C456.825 371.813 456.859 371.865 456.881 371.922C456.903 371.979 456.914 372.04 456.912 372.101Z" fill="#263238"/>
    <path d="M453.84 372.56C454.093 372.56 454.298 372.355 454.298 372.102C454.298 371.849 454.093 371.644 453.84 371.644C453.587 371.644 453.382 371.849 453.382 372.102C453.382 372.355 453.587 372.56 453.84 372.56Z" fill="#263238"/>
    <path d="M451.225 372.56C451.478 372.56 451.683 372.355 451.683 372.102C451.683 371.849 451.478 371.644 451.225 371.644C450.972 371.644 450.767 371.849 450.767 372.102C450.767 372.355 450.972 372.56 451.225 372.56Z" fill="#263238"/>
    <path d="M449.091 372.101C449.088 372.224 449.037 372.34 448.949 372.426C448.862 372.511 448.744 372.559 448.621 372.559C448.511 372.542 448.41 372.486 448.337 372.401C448.264 372.316 448.224 372.208 448.224 372.096C448.224 371.984 448.264 371.875 448.337 371.79C448.41 371.705 448.511 371.649 448.621 371.632C448.746 371.632 448.865 371.681 448.953 371.769C449.041 371.857 449.091 371.977 449.091 372.101Z" fill="#263238"/>
    <path d="M412.776 258.674C413.392 258.686 414.003 258.795 414.586 258.998C416.28 259.553 417.798 260.543 418.988 261.87C420.814 264.012 422.146 266.53 422.888 269.245C423.976 272.78 424.794 276.392 425.335 280.05C426.588 289.589 426.828 299.234 426.05 308.823C425.898 311.65 425.038 314.394 423.547 316.801C422.729 318.033 421.654 319.074 420.396 319.852C419.095 320.662 417.565 321.027 416.039 320.891C414.474 320.747 413.009 320.063 411.893 318.958C411.333 318.389 410.916 317.696 410.675 316.935C410.446 316.151 410.446 315.317 410.675 314.533C410.878 313.741 411.267 313.008 411.809 312.396C412.351 311.784 413.031 311.31 413.793 311.013C414.591 310.728 415.464 310.728 416.262 311.013C417.046 311.311 417.728 311.827 418.229 312.499C418.715 313.156 419.065 313.904 419.257 314.699C419.449 315.493 419.479 316.319 419.346 317.125C419.087 318.681 418.537 320.175 417.726 321.528C415.539 325.415 411.914 328.289 407.63 329.53C403.346 330.771 398.746 330.281 394.819 328.165C392.471 326.868 390.417 325.099 388.785 322.969C387.23 320.993 385.976 318.798 385.064 316.455C383.565 312.215 382.739 307.765 382.617 303.269C382.405 299.169 382.617 295.448 382.226 292.23C382.054 290.741 381.705 289.278 381.187 287.872C380.734 286.696 380.105 285.596 379.321 284.609C378.25 283.216 376.81 282.152 375.164 281.536C374.582 281.354 373.989 281.213 373.388 281.112C374.008 281.124 374.623 281.233 375.209 281.436C376.901 282.005 378.388 283.058 379.489 284.464C380.313 285.471 380.973 286.603 381.444 287.816C381.998 289.255 382.373 290.756 382.561 292.285C382.997 295.537 382.796 299.258 383.042 303.337C383.192 307.786 384.033 312.185 385.534 316.376C386.415 318.68 387.631 320.841 389.143 322.79C390.739 324.857 392.743 326.572 395.032 327.83C398.834 329.865 403.283 330.329 407.423 329.121C411.564 327.914 415.066 325.131 417.178 321.371C417.95 320.083 418.473 318.662 418.72 317.181C418.85 316.451 418.83 315.703 418.663 314.981C418.496 314.259 418.185 313.578 417.748 312.98C417.308 312.399 416.716 311.951 416.039 311.683C415.367 311.443 414.632 311.443 413.96 311.683C413.289 311.95 412.69 312.371 412.212 312.913C411.734 313.454 411.391 314.101 411.211 314.801C411.039 315.488 411.051 316.209 411.247 316.89C411.443 317.571 411.817 318.188 412.329 318.678C413.348 319.689 414.687 320.313 416.117 320.444C417.522 320.572 418.93 320.239 420.128 319.494C421.32 318.76 422.338 317.777 423.112 316.611C424.553 314.281 425.387 311.626 425.536 308.89C426.336 299.342 426.141 289.737 424.955 280.229C424.435 276.589 423.647 272.992 422.598 269.468C421.892 266.785 420.611 264.288 418.843 262.149C417.695 260.827 416.225 259.822 414.575 259.233C413.989 259.005 413.388 258.819 412.776 258.674Z" fill="#E0E0E0"/>
    <path d="M404.004 274.844H366.885V281.917H404.004V274.844Z" fill="#E0E0E0"/>
    <path d="M136.053 347.966H87.6366V452.186H136.053V347.966Z" fill="#263238"/>
    <path d="M131.897 441.212C131.897 441.212 131.897 441.056 131.897 440.754C131.897 440.452 131.897 440.016 131.897 439.458C131.897 438.34 131.897 436.631 131.897 434.474C131.897 430.116 131.897 423.803 131.818 415.858C131.818 399.969 131.74 377.599 131.684 351.575L131.964 351.843H91.4581L91.7486 351.552C91.7486 386.37 91.7486 417.993 91.6704 441.19L91.4581 440.977L121.036 441.089L129.125 441.145H131.237C131.718 441.145 131.975 441.145 131.975 441.145H131.282H129.204H121.17L91.4581 441.257H91.257V441.044C91.257 417.847 91.257 386.225 91.1676 351.407V351.117H132.254V351.396C132.254 377.498 132.154 399.936 132.12 415.87C132.12 423.781 132.12 430.083 132.042 434.418C132.042 436.553 132.042 438.206 132.042 439.346C132.042 439.894 132.042 440.307 132.042 440.609C132.042 440.91 131.897 441.212 131.897 441.212Z" fill="#455A64"/>
    <path d="M129.394 359.162C129.394 359.162 129.394 358.771 129.394 358.045C129.394 357.319 129.394 356.302 129.327 355.028L129.45 355.151C123.181 355.251 109.75 355.318 94.2293 355.318L94.5198 355.028V357.106C94.5198 357.788 94.5198 358.469 94.5198 359.129L94.2405 358.838C104.085 358.838 112.845 358.905 119.181 358.961L126.678 359.039H128.723C128.968 359.015 129.215 359.015 129.461 359.039C129.241 359.055 129.021 359.055 128.801 359.039H126.812L119.393 359.118C113.069 359.185 104.208 359.24 94.2405 359.24H93.95V354.849L94.2517 354.559C109.772 354.559 123.203 354.626 129.472 354.726H129.517V354.849C129.517 356.156 129.517 357.184 129.45 357.944C129.457 358.351 129.438 358.758 129.394 359.162Z" fill="#455A64"/>
    <path d="M97.7155 362.112C97.7155 362.268 96.9892 362.402 96.0953 362.402C95.2013 362.402 94.4639 362.268 94.4639 362.112C94.4639 361.955 95.1902 361.821 96.0953 361.821C97.0003 361.821 97.7155 361.944 97.7155 362.112Z" fill="#455A64"/>
    <path d="M128.455 367.486C128.455 367.643 120.957 367.777 111.694 367.777C102.431 367.777 94.9332 367.643 94.9332 367.486C94.9332 367.33 102.42 367.196 111.694 367.196C120.968 367.196 128.455 367.33 128.455 367.486Z" fill="#455A64"/>
    <path d="M128.6 373.979C128.6 374.146 121.225 374.269 112.141 374.269C103.057 374.269 95.6819 374.146 95.6819 373.979C95.6819 373.811 103.045 373.688 112.141 373.688C121.237 373.688 128.6 373.822 128.6 373.979Z" fill="#455A64"/>
    <path d="M111.705 391.823C113.174 391.823 114.365 390.633 114.365 389.164C114.365 387.695 113.174 386.504 111.705 386.504C110.237 386.504 109.046 387.695 109.046 389.164C109.046 390.633 110.237 391.823 111.705 391.823Z" fill="#2E3E56"/>
    <path d="M104.196 389.086C103.031 389.371 101.828 389.469 100.632 389.377C99.4507 389.466 98.2628 389.368 97.1122 389.086C98.2725 388.794 99.4731 388.696 100.665 388.795C101.85 388.7 103.043 388.798 104.196 389.086Z" fill="#455A64"/>
    <path d="M125.829 388.348C124.736 388.634 123.603 388.732 122.477 388.638C121.351 388.733 120.218 388.635 119.125 388.348C120.219 388.067 121.351 387.969 122.477 388.057C123.603 387.97 124.735 388.068 125.829 388.348Z" fill="#455A64"/>
    <path d="M89.2904 400.26C88.6782 400.202 88.0724 400.09 87.4802 399.925C85.7685 399.453 84.1481 398.698 82.6866 397.69C80.3691 396.099 78.4029 394.049 76.9097 391.667C74.9687 388.502 73.5466 385.046 72.6971 381.432C71.555 377.086 71.1211 372.585 71.4121 368.101C71.6956 362.896 73.4594 357.88 76.4963 353.642C78.1459 351.363 80.203 349.408 82.5637 347.876C83.7936 347.1 85.1004 346.452 86.4634 345.943C87.8622 345.454 89.3075 345.11 90.7765 344.915C93.7265 344.502 96.7434 344.558 99.7157 344.379C102.77 344.315 105.779 343.623 108.554 342.345C109.918 341.717 111.122 340.787 112.074 339.625C113.026 338.464 113.703 337.102 114.052 335.641C114.37 334.243 114.365 332.791 114.038 331.395C113.71 330 113.068 328.697 112.16 327.587C111.253 326.477 110.104 325.589 108.802 324.99C107.499 324.391 106.077 324.098 104.643 324.132C103.288 324.205 101.986 324.688 100.911 325.517C100.403 325.912 99.9955 326.421 99.7235 327.004C99.4514 327.587 99.3223 328.227 99.3469 328.87C99.4844 330.128 100.058 331.299 100.968 332.178C101.879 333.058 103.068 333.591 104.331 333.686C105.542 333.708 106.743 333.462 107.848 332.966C108.953 332.469 109.934 331.734 110.722 330.814C112.217 329.047 113.294 326.965 113.873 324.724C114.428 322.663 114.858 320.569 115.158 318.456C115.96 312.041 116.158 305.565 115.75 299.113C115.639 296.879 115.549 295.08 115.482 293.851C115.482 293.269 115.46 292.811 115.415 292.476C115.4 292.32 115.4 292.163 115.415 292.007C115.452 292.161 115.474 292.318 115.482 292.476C115.482 292.811 115.549 293.258 115.605 293.839C115.694 295.046 115.84 296.812 115.974 299.102C116.475 305.57 116.337 312.071 115.56 318.511C115.271 320.647 114.849 322.763 114.298 324.847C113.725 327.147 112.645 329.289 111.135 331.116C110.302 332.095 109.261 332.877 108.088 333.405C106.915 333.933 105.639 334.193 104.353 334.166C102.961 334.071 101.647 333.487 100.644 332.518C99.64 331.549 99.0106 330.257 98.8665 328.87C98.8353 328.139 98.9781 327.412 99.2831 326.747C99.5881 326.083 100.047 325.501 100.621 325.048C101.778 324.142 103.187 323.615 104.655 323.54C106.562 323.52 108.436 324.043 110.058 325.049C111.679 326.054 112.981 327.5 113.812 329.217C114.642 330.935 114.967 332.853 114.749 334.748C114.53 336.644 113.777 338.437 112.577 339.921C111.545 341.142 110.27 342.135 108.834 342.837C105.986 344.154 102.897 344.869 99.7604 344.938C96.7099 345.117 93.7041 345.061 90.8212 345.452C89.3912 345.643 87.9838 345.976 86.6198 346.446C85.2942 346.936 84.0244 347.565 82.8319 348.323C80.5262 349.808 78.5116 351.701 76.8873 353.91C73.9035 358.062 72.1597 362.975 71.8591 368.079C71.5693 372.524 71.9918 376.986 73.1106 381.298C73.9354 384.876 75.3153 388.303 77.2002 391.455C78.6381 393.815 80.5386 395.86 82.7872 397.466C84.2228 398.479 85.8109 399.256 87.4914 399.768C88.0613 399.936 88.5082 400.036 88.8099 400.103C88.976 400.135 89.1374 400.188 89.2904 400.26Z" fill="#263238"/>
    <path d="M187.453 186.291H72.809V265.022H187.453V186.291Z" fill="#263238"/>
    <path d="M136.88 254.283H121.27V283.984H136.88V254.283Z" fill="#263238"/>
    <path d="M84.2175 282.844V293.526H143.372V452.71H148.814V293.526L395.858 294.744V452.71H401.2V294.454L439.325 294.755V281.917L84.2175 282.844Z" fill="#263238"/>
    <path d="M122.075 291.448L145.395 308.243L143.372 310.187L119.851 292.476L122.075 291.448Z" fill="#263238"/>
    <path d="M423.178 293.012L396.115 312.287L398.149 314.232L425.402 294.04L423.178 293.012Z" fill="#263238"/>
    <path d="M231.378 278.9H170.234V283.403H231.378V278.9Z" fill="#263238"/>
</svg>
