<svg width="566" height="642" viewBox="0 0 566 642" fill="none" xmlns="http://www.w3.org/2000/svg">
    <path d="M282.654 641.979L51.7801 577.886L0.329651 0.822144H565.67L514.167 577.797L282.654 641.979Z" fill="#264DE4"/>
    <path d="M470.074 541.057L514.085 48.0044H283V592.92L470.074 541.057Z" fill="#2965F1"/>
    <path d="M118.278 262.03L124.62 332.804H283V262.03H118.278ZM105.531 118.781L111.964 189.556H283V118.781H105.531ZM283 445.839L282.69 445.921L203.869 424.638L198.829 368.193H127.782L137.697 479.32L282.674 519.563L283 519.475V445.839Z" fill="#EBEBEB"/>
    <path d="M447.27 262.03L460.046 118.781H282.756V189.556H382.484L376.044 262.03H282.756V332.804H369.907L361.69 424.594L282.754 445.899V519.53L427.847 479.32L428.91 467.362L445.544 281.035L447.27 262.03Z" fill="white"/>
</svg>
