<svg width="70" height="70" viewBox="0 0 70 70" fill="none" xmlns="http://www.w3.org/2000/svg">
    <path d="M68.2234 31.4423L38.0818 1.30184C36.3471 -0.433945 33.5318 -0.433945 31.7944 1.30184L25.5359 7.56137L33.4755 15.5009C35.3212 14.878 37.4365 15.2958 38.907 16.7664C40.3852 18.2462 40.7998 20.3796 40.1616 22.2313L47.8134 29.8837C49.6646 29.2455 51.8013 29.6579 53.2789 31.1388C55.3461 33.2043 55.3461 36.5529 53.2789 38.6195C52.7877 39.111 52.2044 39.5009 51.5624 39.7669C50.9205 40.0329 50.2324 40.1698 49.5375 40.1698C48.8426 40.1698 48.1545 40.0329 47.5125 39.7669C46.8705 39.5009 46.2873 39.111 45.796 38.6195C45.058 37.881 44.5548 36.9406 44.35 35.9168C44.1452 34.893 44.2477 33.8315 44.6449 32.8658L37.5092 25.7302L37.5081 44.5104C38.0258 44.7654 38.4985 45.103 38.9076 45.5101C40.9737 47.5757 40.9737 50.9231 38.9076 52.993C36.8409 55.0586 33.4913 55.0586 31.4269 52.993C29.3608 50.9236 29.3608 47.5762 31.4269 45.5101C31.9219 45.0143 32.5106 44.6221 33.1588 44.3562V25.4021C32.5101 25.1369 31.9212 24.7444 31.4269 24.2476C29.8617 22.6836 29.4849 20.3867 30.2877 18.4639L22.4603 10.6364L1.79282 31.3029C0.959009 32.1369 0.490601 33.268 0.490601 34.4474C0.490601 35.6268 0.959009 36.7578 1.79282 37.5919L31.9349 67.7324C33.6707 69.4682 36.4849 69.4682 38.2234 67.7324L68.2239 37.7319C69.0575 36.8976 69.5258 35.7664 69.5257 34.587C69.5256 33.4076 69.0572 32.2765 68.2234 31.4423Z" fill="#F34F29"/>
</svg>
