<svg width="60" height="68" viewBox="0 0 60 68" fill="none" xmlns="http://www.w3.org/2000/svg">
<path d="M5.39332 60.4909L0 0H59.2624L53.8631 60.4817L29.5951 67.2092L5.39332 60.4909Z" fill="#E44D26"/>
<path d="M29.6312 62.0671L49.2412 56.6302L53.8551 4.94592H29.6312V62.0671Z" fill="#F16529"/>
<path d="M29.6312 27.3811H19.8138L19.1356 19.7836H29.6312V12.365H11.0276L11.2055 14.3552L13.0286 34.8002H29.6312V27.3811ZM29.6312 46.6488L29.5983 46.658L21.3361 44.4263L20.8083 38.5101H13.3601L14.3994 50.1587L29.5972 54.3774L29.6312 54.3682V46.6488Z" fill="#EBEBEB"/>
<path d="M29.6053 27.3811V34.8002H38.7408L37.88 44.422L29.6053 46.6553V54.3741L44.815 50.1587L44.9266 48.9053L46.6699 29.3735L46.8505 27.3811H44.8517H29.6053ZM29.6053 12.365V19.7836H47.5259L47.6747 18.1168L48.0133 14.3552L48.1906 12.365H29.6053Z" fill="white"/>
</svg>
