<svg width="50" height="68" viewBox="0 0 50 68" fill="none" xmlns="http://www.w3.org/2000/svg">
    <path d="M15.9819 52.0374C15.9819 52.0374 13.4122 53.5327 17.8131 54.0373C23.1455 54.6464 25.8704 54.5591 31.7451 53.4486C31.7451 53.4486 33.2928 54.4163 35.4501 55.255C22.276 60.899 5.63564 54.9278 15.9819 52.0374ZM14.3712 44.6711C14.3712 44.6711 11.4882 46.8052 15.8929 47.2613C21.5892 47.8494 26.0866 47.8974 33.8728 46.3988C33.8728 46.3988 34.9472 47.4904 36.6393 48.0866C20.7143 52.7441 2.97699 48.4531 14.3712 44.6711Z" fill="#0074BD"/>
    <path d="M27.941 32.1734C31.1889 35.9118 27.0893 39.2729 27.0893 39.2729C27.0893 39.2729 35.331 35.0191 31.5468 29.69C28.0111 24.7225 25.3007 22.2552 39.9751 13.7445C39.9751 13.745 16.9404 19.4963 27.941 32.1734Z" fill="#EA2D2E"/>
    <path d="M45.3641 57.4867C45.3641 57.4867 47.2664 59.0554 43.2682 60.2678C35.6664 62.5706 11.622 63.2649 4.94411 60.3599C2.54474 59.3152 7.04591 57.8668 8.46203 57.5611C9.93852 57.2415 10.7816 57.2997 10.7816 57.2997C8.11164 55.42 -6.47539 60.9923 3.37328 62.5906C30.2299 66.944 52.3293 60.63 45.3641 57.4867ZM17.2191 37.0374C17.2191 37.0374 4.98993 39.9424 12.8888 40.9984C16.2245 41.4448 22.8712 41.3424 29.0666 40.8227C34.1284 40.3974 39.208 39.4891 39.208 39.4891C39.208 39.4891 37.4248 40.254 36.1332 41.1348C23.7121 44.4021 -0.27725 42.8803 6.62976 39.5403C12.4689 36.7161 17.2191 37.0374 17.2191 37.0374ZM39.1573 49.2995C51.7827 42.7407 45.9447 36.4374 41.8699 37.2864C40.8737 37.494 40.4268 37.6746 40.4268 37.6746C40.4268 37.6746 40.7977 37.0929 41.5049 36.8428C49.5655 34.01 55.7637 45.1999 38.905 49.6321C38.905 49.631 39.0986 49.4558 39.1573 49.2995Z" fill="#0074BD"/>
    <path d="M31.5468 0C31.5468 0 38.5374 6.99487 24.9147 17.7476C13.9901 26.3758 22.4237 31.2942 24.911 36.9161C18.5333 31.1627 13.8553 26.0971 16.9932 21.383C21.6011 14.4647 34.3667 11.109 31.5468 0Z" fill="#EA2D2E"/>
    <path d="M18.46 67.0777C30.5759 67.8524 49.1865 66.6465 49.627 60.913C49.627 60.913 48.7801 63.0865 39.6128 64.811C29.2703 66.7581 16.5118 66.5311 8.94714 65.2821C8.94714 65.2827 10.4969 66.5656 18.46 67.0777Z" fill="#0074BD"/>
</svg>
