<svg width="68" height="68" viewBox="0 0 68 68" fill="none" xmlns="http://www.w3.org/2000/svg">
<path d="M0.490601 0H67.9726V67.4825H0.490601V0Z" fill="#F0DB4F"/>
<path d="M62.4499 51.3877C61.9556 48.3091 59.9481 45.7232 54.0017 43.312C51.936 42.3627 49.6331 41.683 48.9469 40.1175C48.7032 39.2065 48.6709 38.6933 48.8251 38.1419C49.2676 36.3522 51.4039 35.7943 53.0971 36.3074C54.1877 36.6729 55.22 37.5133 55.8426 38.854C58.7546 36.9683 58.7487 36.9807 60.782 35.6848C60.0376 34.5307 59.6403 33.9981 59.153 33.5043C57.4016 31.5481 55.0151 30.5406 51.1986 30.6176L49.2105 30.8748C47.3055 31.3562 45.4899 32.3561 44.4252 33.6968C41.2308 37.3214 42.1418 43.6651 46.029 46.2758C49.8585 49.1501 55.4841 49.8039 56.2027 52.4917C56.9018 55.7822 53.7844 56.8473 50.6859 56.4689C48.4024 55.994 47.1324 54.8334 45.7594 52.723C43.2323 54.1855 43.2323 54.1855 40.634 55.6797C41.2502 57.0268 41.8976 57.6365 42.9304 58.8036C47.8186 63.7619 60.051 63.5182 62.245 56.0134C62.334 55.7557 62.9248 54.0372 62.4499 51.3877ZM37.1759 31.0149H30.864L30.8382 47.3334C30.8382 50.8039 31.0177 53.9855 30.4533 54.9606C29.5299 56.8786 27.137 56.6409 26.0464 56.2689C24.9365 55.7234 24.3721 54.9477 23.7182 53.8512C23.5387 53.5364 23.404 53.2928 23.3587 53.2739L18.2268 56.4166C19.0801 58.168 20.3372 59.6882 21.9474 60.6758C24.3527 62.1194 27.5855 62.5619 30.9665 61.7857C33.1669 61.1448 35.0655 59.817 36.0595 57.7961C37.4967 55.1466 37.1883 51.9397 37.1754 48.3927C37.2077 42.6059 37.1759 36.8201 37.1759 31.0149Z" fill="#323330"/>
</svg>
