<svg width="69" height="68" viewBox="0 0 69 68" fill="none" xmlns="http://www.w3.org/2000/svg">
    <path d="M63.4418 52.3078C59.6829 52.2049 56.813 52.5563 54.3575 53.5903C53.6605 53.8851 52.549 53.8916 52.4352 54.7654C52.8185 55.1676 52.8773 55.7675 53.1829 56.2624C53.7683 57.2079 54.7581 58.4796 55.6405 59.1475C56.6049 59.8741 57.5989 60.6531 58.6328 61.2827C60.4732 62.405 62.5265 63.0454 64.2952 64.1677C65.3399 64.8308 66.3754 65.6647 67.3948 66.4124C67.8982 66.7811 68.2373 67.3558 68.8896 67.5876V67.4824C68.5462 67.0447 68.4578 66.442 68.1419 65.9855L66.7522 64.5958C65.3938 62.7931 63.6693 61.2099 61.8376 59.8957C60.3762 58.845 57.1041 57.4278 56.4955 55.7287L56.3882 55.6214C57.4243 55.5034 58.6371 55.1287 59.5951 54.8716C61.2015 54.442 62.6381 54.5536 64.2952 54.1239L66.5398 53.4841V53.0566C65.7016 52.1973 65.1037 51.0583 64.19 50.2793C61.7961 48.2411 59.1848 46.2067 56.496 44.5098C55.0049 43.5685 53.1624 42.9556 51.5814 42.1578C51.0488 41.8904 50.1157 41.7492 49.7642 41.3029C48.9346 40.2458 48.4818 38.9046 47.8419 37.6707C46.5007 35.0869 45.1843 32.2676 43.9946 29.5491C43.1838 27.6964 42.6556 25.8684 41.6448 24.207C36.7933 16.2305 31.5714 11.4151 23.4811 6.68319C21.7588 5.67676 19.6866 5.27894 17.4964 4.75874L13.9693 4.54581C13.2513 4.24663 12.5058 3.3685 11.832 2.94102C9.15229 1.24675 2.27708 -2.43613 0.291178 2.40681C-0.961603 5.46222 2.1655 8.44377 3.28351 9.99358C4.06893 11.0782 5.0732 12.297 5.63329 13.5185C6.00416 14.3228 6.06723 15.1271 6.38312 15.9761C7.1583 18.0693 7.8359 20.3474 8.84071 22.2804C9.34797 23.2594 9.90805 24.2895 10.5506 25.1655C10.9425 25.7024 11.618 25.9407 11.7258 26.7681C11.0643 27.6926 11.0266 29.1265 10.6563 30.2952C8.98626 35.5619 9.61804 42.1061 12.046 46.0019C12.7915 47.2002 14.5478 49.7645 16.9606 48.7813C19.0727 47.9199 18.601 45.2563 19.2053 42.9044C19.3422 42.3718 19.2581 41.9799 19.5255 41.622V41.7293L21.4499 45.5744C22.8736 47.8676 25.398 50.2637 27.5397 51.8809C28.6496 52.7191 29.5235 54.1676 30.9595 54.6581V54.5509H30.8522C30.5741 54.1169 30.1385 53.938 29.7849 53.5908C28.9488 52.7698 28.0184 51.7504 27.3273 50.8114C25.3797 48.1689 23.659 45.2752 22.0925 42.2646C21.3426 40.8263 20.692 39.241 20.0602 37.7774C19.816 37.213 19.8203 36.358 19.3125 36.0675C18.622 37.1391 17.6026 38.007 17.0679 39.2722C16.2151 41.2959 16.1035 43.7658 15.7876 46.3242C15.6 46.3916 15.6825 46.3453 15.5731 46.4315C14.0842 46.0714 13.5624 44.5405 13.0082 43.2246C11.6099 39.9018 11.349 34.5511 12.5807 30.7232C12.8988 29.7335 14.3391 26.6172 13.7559 25.7013C13.4777 24.7898 12.5597 24.2609 12.046 23.5639C11.4099 22.7025 10.7765 21.5678 10.3361 20.5716C9.19056 17.9814 8.65797 15.0715 7.45101 12.4522C6.87421 11.1995 5.9012 9.93159 5.10123 8.82004C4.21448 7.58612 3.22314 6.67619 2.53637 5.18568C2.29218 4.65524 1.96173 3.80622 2.32183 3.26338C2.43773 2.89466 2.59998 2.74103 2.96385 2.62136C3.58269 2.14321 5.30985 2.78146 5.95403 3.04884C7.66825 3.7604 9.09784 4.43854 10.5506 5.40076C11.2455 5.86166 11.9511 6.75489 12.7931 7.0034H13.7553C15.2588 7.34894 16.9434 7.10851 18.3498 7.53599C20.8343 8.29176 23.0601 9.46691 25.0816 10.7429C31.2388 14.6322 36.2758 20.1657 39.7204 26.7714C40.274 27.8349 40.5144 28.8478 41.0028 29.9761C41.986 32.2504 43.2264 34.5899 44.2054 36.8157C45.1843 39.0329 46.1363 41.2738 47.5195 43.12C48.2462 44.0909 51.0509 44.6111 52.3269 45.1502C53.2217 45.527 54.6874 45.921 55.5338 46.4326C57.151 47.4077 58.7175 48.57 60.236 49.6373C60.9918 50.1721 63.3248 51.3451 63.4407 52.3094L63.4418 52.3078ZM15.6782 11.5978C14.8949 11.5833 14.3413 11.6819 13.7559 11.8108V11.918H13.861C14.2356 12.6846 14.8949 13.1794 15.358 13.8403L16.4253 16.085L16.5326 15.9799C17.194 15.5125 17.497 14.767 17.4927 13.6279C17.2274 13.3476 17.1897 13.0005 16.9579 12.6657C16.655 12.2215 16.0631 11.9709 15.6776 11.5984L15.6782 11.5978Z" fill="#00618A"/>
</svg>
