<svg width="64" height="66" viewBox="0 0 64 66" fill="none" xmlns="http://www.w3.org/2000/svg">
    <path fill-rule="evenodd" clip-rule="evenodd" d="M63.7485 39.7742C63.5059 38.2012 62.1846 37.1711 60.6478 37.1015C60.0914 37.0762 59.5265 37.1344 58.9718 37.205C58.3018 37.2902 57.6398 37.4411 56.9714 37.5409C56.5094 37.6099 56.0409 37.6417 55.5795 37.6891L55.5682 37.6293C56.4296 36.0024 57.3271 34.3933 58.1422 32.7432C58.767 31.4775 59.3017 30.1659 59.8543 28.8652C60.7685 26.71 61.4989 24.488 62.1038 22.2299C62.6833 20.0677 63.1792 17.8818 63.335 15.6387C63.3975 14.7428 63.4407 13.8431 63.4358 12.9461C63.4315 12.2308 63.3544 11.5144 63.2827 10.8012C63.2018 9.98398 62.955 9.20934 62.6132 8.46382C62.1625 7.48165 61.4639 6.67575 60.7286 5.91028C60.14 5.29737 59.4926 4.7389 58.8505 4.18097C57.9352 3.38477 56.9061 2.74922 55.8372 2.18482C54.6263 1.54136 53.3433 1.04374 52.0152 0.702398C51.2104 0.497016 50.3872 0.344461 49.5722 0.181664C49.2789 0.122367 48.9851 0 48.6919 0H43.1714C42.9719 0 42.7741 0.102961 42.573 0.125602C41.2512 0.272766 39.9451 0.521813 38.6767 0.914789C38.2023 1.06195 37.7689 0.969234 37.3182 0.927727C36.9727 0.895922 36.6331 0.803203 36.2875 0.785953C34.9711 0.720188 33.6531 0.623695 32.3373 0.637711C31.0764 0.650648 29.8285 0.858188 28.608 1.2048C27.5865 1.49482 26.5871 1.84898 25.6718 2.38589C25.2799 2.61553 24.9694 2.57241 24.564 2.45543C23.2018 2.06245 21.8299 1.6932 20.4461 1.38323C19.5836 1.19025 18.6968 1.0943 17.816 1.00212C16.9708 0.914275 16.1223 0.861401 15.2727 0.843633C14.4436 0.825844 13.6086 0.826383 12.7833 0.899695C11.4688 1.01397 10.1731 1.28786 8.92472 1.7153C7.54217 2.18737 6.25035 2.89198 5.10492 3.79877C3.93677 4.72327 2.99988 5.85206 2.24627 7.14096C1.45223 8.50102 0.907781 9.95702 0.56925 11.4863C0.385969 12.3149 0.27007 13.1666 0.144469 14.0081C0.105117 14.2701 0.539062 14.532 0 14.793V18.4553C0.539062 18.699 0.112125 18.9421 0.143391 19.1863C0.21832 19.7734 0.284625 20.3652 0.383812 20.948C0.54068 21.8703 0.726656 22.7899 0.916406 23.7064C1.17988 24.9872 1.4577 26.265 1.7498 27.5396C1.96327 28.4668 2.20638 29.3886 2.46082 30.3056C2.84948 31.706 3.23222 33.1092 3.67155 34.4941C4.07963 35.7808 4.54699 37.0492 5.01059 38.3176C5.65261 40.0723 6.42131 41.7703 7.34311 43.3978C8.14038 44.8069 9.0514 46.1265 10.2735 47.2122C11.0788 47.9275 11.9753 48.4774 13.0189 48.7523C13.8388 48.9679 14.6722 48.9938 15.5115 48.8218C16.4678 48.6273 17.3611 48.1993 18.112 47.576C18.1998 47.5038 18.2963 47.4488 18.4004 47.5814C18.7966 48.0833 19.327 48.4181 19.8817 48.7075C21.3787 49.4881 23.0099 49.722 24.667 49.8175C25.068 49.8406 25.4734 49.783 25.8777 49.7716C26.6653 49.7501 27.4307 49.5964 28.1838 49.3787C28.5784 49.2644 28.9638 49.1194 29.3654 48.9841C29.3865 49.4115 29.4134 49.8234 29.4258 50.2352L29.4819 52.481C29.4921 52.8227 29.5056 53.1656 29.5374 53.5057C29.6188 54.3828 29.6986 55.2604 29.8031 56.1347C29.8759 56.7374 29.9514 57.3449 30.0932 57.933C30.3774 59.1203 30.7667 60.2799 31.2565 61.3981C31.7253 62.4836 32.446 63.4417 33.3588 64.1932C34.5555 65.1829 35.9582 65.605 37.4729 65.6832C38.0993 65.716 38.7435 65.6853 39.3602 65.5732C40.3403 65.399 41.3099 65.1695 42.2641 64.8859C44.1999 64.3015 45.8731 63.2924 47.1232 61.6617C47.8348 60.7324 48.4191 59.727 48.7943 58.6171C49.1037 57.7002 49.3954 56.7741 49.6272 55.8356C49.8105 55.096 49.901 54.3332 50.0126 53.578C50.0865 53.0783 50.1307 52.5737 50.177 52.0702C50.2525 51.2524 50.3296 50.4352 50.384 49.6159C50.4218 49.0455 50.4201 48.4725 50.4428 47.9011C50.4498 47.727 50.4778 47.5539 50.494 47.3804C50.5091 47.2197 50.5899 47.1642 50.7538 47.1669C51.3312 47.1755 51.9096 47.1906 52.4853 47.1647C53.1305 47.1356 53.7817 47.1081 54.4167 47.0014C55.3216 46.8503 56.2191 46.6583 57.1067 46.4262C58.1541 46.1524 59.1147 45.6618 60.0392 45.1028C61.1162 44.4522 62.0978 43.6889 62.8946 42.7056C63.5873 41.848 63.9156 40.8566 63.7485 39.7742ZM61.9092 40.3035C61.8736 40.7968 61.6477 41.2194 61.32 41.5806C59.7734 43.2856 57.8333 44.3201 55.614 44.8295C54.7709 45.0225 53.9009 45.1228 53.0378 45.2025C52.3005 45.2674 51.5597 45.2849 50.8201 45.2548C50.2778 45.2343 49.7398 45.1104 49.1857 45.0306C49.1302 45.5373 49.0773 46.065 49.0132 46.5917L48.755 48.6105C48.6768 49.2504 48.6159 49.8924 48.5356 50.5317C48.4569 51.1522 48.3588 51.7705 48.2763 52.3909C48.1992 52.9688 48.1426 53.5494 48.0569 54.1262C47.9248 55.0103 47.7987 55.8965 47.6262 56.7735C47.4192 57.822 47.1017 58.8376 46.5836 59.7831C45.9518 60.9372 45.0559 61.8165 43.9158 62.4676C42.7407 63.1393 41.4561 63.4886 40.1537 63.7808C39.2319 63.9878 38.2821 64.0218 37.3484 63.9377C35.7291 63.791 34.3469 63.0983 33.3022 61.8429C32.3049 60.6445 31.63 59.271 31.3885 57.7163C31.2758 56.9763 31.1875 56.2327 31.1239 55.4868C31.0523 54.6579 30.9986 53.8275 30.9627 52.9963C30.9149 51.9418 30.8795 50.8868 30.8565 49.8315C30.8279 48.5345 30.8187 47.2375 30.8004 45.9405L30.7972 45.8909C30.1374 46.2866 29.4889 46.72 28.801 47.0769C27.9972 47.4927 27.1173 47.7408 26.2146 47.8062C25.5041 47.8601 24.7845 47.9092 24.0772 47.8526C22.9177 47.7593 21.7593 47.5777 20.721 47.0068C20.3 46.775 19.8607 46.4931 19.5707 46.1227C18.8753 45.2354 19.2084 44.1142 20.2569 43.5746C20.9814 43.201 21.7722 43.0452 22.5576 42.8636C23.2412 42.7085 23.9177 42.5234 24.585 42.3089C25.2438 42.0932 25.6594 41.559 26.0696 41.0351L26.7197 40.199C26.4486 40.1704 26.193 40.1413 25.9375 40.1176C25.1618 40.0443 24.4217 39.8308 23.7139 39.5171C23.108 39.2491 23.0988 39.22 22.6546 39.702C21.9129 40.5073 21.1916 41.3315 20.465 42.1504C19.9302 42.7525 19.3987 43.3584 18.8666 43.9622C18.3394 44.5594 17.8457 45.1907 17.278 45.7465C16.4349 46.5718 15.4188 47.0682 14.2065 47.0122C13.4286 46.9766 12.7165 46.7038 12.0761 46.258C10.7543 45.3373 9.86377 44.0495 9.05302 42.697C8.01424 40.9639 7.21697 39.1176 6.53452 37.2206C6.0623 35.9096 5.58792 34.5976 5.17554 33.2677C4.72758 31.8225 4.3346 30.3589 3.94809 28.8959C3.65939 27.7906 3.39303 26.6795 3.1492 25.5634C2.86488 24.2959 2.60178 23.0237 2.36002 21.7474C2.19938 20.8854 2.10612 20.0111 1.9762 19.1432C1.80101 17.9734 1.76866 16.7929 1.83227 15.6183C1.88888 14.5601 2.04089 13.5046 2.19183 12.4534C2.40098 10.999 2.88021 9.62658 3.56967 8.33067C3.99176 7.53663 4.51573 6.81483 5.12163 6.14423C6.1162 5.04347 7.31993 4.24781 8.65896 3.65053C9.59477 3.2333 10.5834 2.98209 11.5909 2.78588C13.0863 2.49478 14.5951 2.5061 16.1045 2.53737C16.7643 2.55084 17.4214 2.67105 18.0807 2.73628C19.5 2.87752 20.8914 3.17616 22.2649 3.54488C23.2659 3.81333 24.2465 4.16102 25.2394 4.4629C25.3392 4.49309 25.4853 4.49039 25.5667 4.43702C26.9122 3.55889 28.3827 2.9794 29.9465 2.64788C30.54 2.52227 31.1524 2.46729 31.7594 2.42848C32.4974 2.38158 33.2413 2.33845 33.9776 2.38104C34.8628 2.43171 35.7436 2.56216 36.6234 2.68291C37.0503 2.74113 37.467 2.88938 37.895 2.9298C38.0999 2.94921 38.3171 2.79935 38.5338 2.74922C39.6383 2.49424 40.738 2.21016 41.8523 2.00855C42.6819 1.85869 43.5293 1.78807 44.3729 1.73955C45.3136 1.68565 46.2613 1.6463 47.2014 1.69158C48.3918 1.75053 49.5745 1.91706 50.7349 2.18913C52.178 2.52497 53.5623 3.01282 54.8782 3.68988C55.8614 4.19552 56.7962 4.78202 57.6376 5.50329C58.1891 5.97659 58.7535 6.44395 59.2516 6.97116C59.8661 7.62127 60.4931 8.27191 60.8785 9.10476C61.1685 9.73277 61.3755 10.3829 61.4326 11.0707C61.5038 11.9257 61.59 12.7839 61.582 13.6399C61.5744 14.4587 61.4628 15.277 61.3836 16.0937C61.2035 17.9556 60.7987 19.7771 60.3071 21.5744C59.8958 23.059 59.4303 24.528 58.9114 25.9785C58.4376 27.3159 57.891 28.6291 57.3385 29.9368C56.9317 30.9055 56.4898 31.859 56.0134 32.7955C55.1094 34.5668 54.1693 36.3199 53.082 37.9883C52.8944 38.2767 52.7165 38.5721 52.5333 38.8664C53.0076 39.1866 53.5451 39.2993 54.0863 39.3575C54.6011 39.4136 55.1261 39.447 55.6404 39.4087C56.4636 39.3478 57.284 39.2303 58.1023 39.1155C58.9131 39.0022 59.7076 38.7715 60.54 38.8324C61.3712 38.8928 61.9658 39.5246 61.9092 40.3035ZM50.0428 38.4961C49.6897 38.04 49.3296 37.5894 48.9841 37.1279C48.4418 36.4034 48.052 35.5943 47.6607 34.7814C47.2898 34.0111 46.8348 33.2817 46.444 32.52C45.7621 31.1912 45.0678 29.8668 44.4398 28.5121C43.65 26.8103 43.0274 25.0481 42.8312 23.163C42.7482 22.3652 42.7272 21.5684 42.8884 20.7782C43.1466 19.5162 43.8058 18.5292 44.9142 17.8521C45.9421 17.2241 47.0876 17.0214 48.2612 16.9578C48.9895 16.9185 49.721 16.9508 50.4767 16.9508L50.4514 16.8231C49.9813 15.8404 49.542 14.8409 49.0277 13.8814C48.3022 12.5273 47.3739 11.3063 46.34 10.1743C45.574 9.33602 44.7443 8.55816 43.8355 7.87085C42.9417 7.19433 42 6.59004 40.9952 6.09572C39.7968 5.50652 38.5489 5.05102 37.2395 4.76046C35.9813 4.48123 34.7151 4.31034 33.4246 4.29633C32.3238 4.28447 31.23 4.33406 30.1579 4.58257C28.5396 4.95722 27.0593 5.6235 25.7715 6.7027C25.059 7.30025 24.4223 7.98274 23.8756 8.73497C23.2309 9.62065 22.7107 10.5769 22.266 11.5796C21.6558 12.9553 21.2369 14.387 20.9507 15.8587C20.8073 16.5923 20.6951 17.3325 20.5809 18.0721C20.541 18.3308 20.5377 18.5955 20.5146 18.892C20.7135 18.7885 20.8569 18.7087 21.0035 18.6375L21.4806 18.4235C23.094 17.6856 24.7656 17.2106 26.5623 17.2651C27.3256 17.2883 28.056 17.4392 28.7347 17.7734C30.0366 18.4155 30.7983 19.5071 31.1292 20.8887C31.3578 21.8423 31.5141 22.8147 31.6661 23.7845C31.7853 24.5419 31.9071 25.3074 31.9211 26.0712C31.9411 27.1876 31.8845 28.3062 31.8236 29.422C31.7713 30.3709 31.5749 31.3062 31.2414 32.196C30.6376 33.8095 29.9649 35.3965 29.3363 37.0007C29.1288 37.5306 28.9692 38.0794 28.773 38.6621C29.076 38.6621 29.3218 38.6599 29.5676 38.6632C29.6635 38.6648 29.7616 38.6675 29.8544 38.6896C30.5767 38.8599 31.2031 39.1871 31.7168 39.7429C32.402 40.4825 32.7615 41.3456 32.7799 42.3444C32.7901 42.8981 32.7319 43.4533 32.7346 44.0069C32.7459 46.5869 32.7653 49.1668 32.7869 51.7462C32.7906 52.1678 32.8117 52.5899 32.8418 53.0109C32.9049 53.8922 32.9685 54.7741 33.0548 55.6534C33.1152 56.277 33.1992 56.8997 33.2979 57.5191C33.4375 58.3966 33.837 59.1777 34.2903 59.9243C34.6806 60.5664 35.1878 61.1119 35.8563 61.4882C36.9921 62.1275 38.2152 62.1809 39.4481 61.9453C40.2809 61.7863 41.0987 61.5308 41.9073 61.2671C42.7024 61.012 43.4285 60.5779 44.0295 59.9982C44.5961 59.4489 44.9982 58.7794 45.2694 58.0403C45.7955 56.607 45.9594 55.0976 46.1772 53.6001C46.2586 53.0394 46.3292 52.4772 46.4036 51.9155C46.4882 51.2762 46.5739 50.6374 46.6559 49.9986C46.7162 49.5226 46.7712 49.0455 46.8294 48.5695C46.9125 47.886 47.0003 47.203 47.0796 46.5189C47.1405 45.9901 47.1922 45.4591 47.2461 44.9292C47.3157 44.2522 47.3906 43.5751 47.4504 42.897C47.4968 42.3822 47.4779 41.8582 47.569 41.3531C47.7367 40.427 48.1744 39.6389 48.9954 39.1295C49.3388 38.9165 49.7264 38.7764 50.1075 38.5963L50.0428 38.4961ZM18.9944 34.6946C18.585 33.7318 18.3383 32.7076 18.2645 31.664C18.1955 30.6802 18.3125 29.7002 18.4133 28.7207C18.5114 27.772 18.5928 26.8189 18.6214 25.8658C18.6688 24.2993 18.5632 22.735 18.4882 21.1695C18.4429 20.2375 18.5513 19.2941 18.6343 18.3599C18.7092 17.5185 18.8025 16.6748 18.9615 15.8457C19.2284 14.4544 19.5825 13.083 20.086 11.7537C20.5642 10.4934 21.1135 9.26595 21.8892 8.16087C22.4207 7.40295 23.0239 6.69462 23.6034 5.95395L23.4314 5.89303C21.5458 5.29413 19.6294 4.82623 17.6586 4.62192C16.7266 4.52543 15.7913 4.46883 14.8566 4.4133C14.5698 4.39605 14.2787 4.43487 13.9908 4.46236C13.2782 4.53028 12.5569 4.55723 11.8556 4.69092C10.6621 4.91787 9.51715 5.29952 8.45681 5.92106C7.50483 6.47899 6.7054 7.20026 6.03588 8.06545C5.29629 9.02067 4.79873 10.101 4.44134 11.2529C4.01925 12.6119 3.81818 14.0102 3.76373 15.4215C3.7163 16.6586 3.69258 17.9028 3.90605 19.1351C4.06507 20.0526 4.17127 20.9798 4.34646 21.8935C4.58527 23.1393 4.84132 24.3823 5.13727 25.6152C5.56043 27.3801 5.98305 29.1476 6.48438 30.891C6.96415 32.5615 7.50537 34.217 8.09187 35.8525C8.57163 37.1872 9.12633 38.4972 9.71067 39.7898C10.0913 40.6318 10.5521 41.442 11.0351 42.2307C11.5489 43.0679 12.1332 43.8624 12.9262 44.47C13.9267 45.237 14.7013 45.3562 15.718 44.5147C16.1535 44.1541 16.5217 43.7088 16.9007 43.2846C17.5028 42.6107 18.0839 41.9186 18.6834 41.2426C19.4467 40.3812 20.2197 39.5289 20.9868 38.6718C21.149 38.4907 21.3048 38.3042 21.4628 38.1209L21.2019 37.8918C20.2545 36.9888 19.5031 35.9005 18.9944 34.6946ZM47.9356 9.05194C48.5628 9.78111 49.1579 10.5372 49.7194 11.3182C50.7975 12.8324 51.6589 14.4674 52.2934 16.2166C52.5742 16.9875 52.7985 17.7659 52.6982 18.6095C52.6287 19.2003 52.6346 19.7998 52.5823 20.3938C52.5386 20.8881 52.4605 21.3798 52.3963 21.8725C52.3004 22.6153 52.1613 23.356 52.1198 24.102C52.0804 24.812 52.1214 25.5295 52.1662 26.241C52.2114 26.9639 52.309 27.6836 52.3753 28.4054C52.4502 29.2237 52.551 30.042 52.5742 30.8619C52.5931 31.5352 52.5333 32.2128 52.4745 32.885C52.4044 33.6946 52.199 34.4784 51.8929 35.2304C51.6778 35.7598 51.4206 36.273 51.1775 36.8029L51.2751 36.9064L51.4233 37.0212L51.5726 36.7538C52.8336 34.7693 53.9544 32.6991 54.9267 30.5584C55.5488 29.1765 56.1396 27.7807 56.6986 26.372C57.574 24.1813 58.2667 21.9291 58.8026 19.6321C59.043 18.6009 59.2268 17.554 59.3901 16.5072C59.5173 15.6889 59.6235 14.8609 59.6473 14.035C59.6726 13.1591 59.6241 12.2761 59.5432 11.4023C59.4829 10.7424 59.3201 10.0783 58.9066 9.54195C58.2419 8.67837 57.5244 7.85252 56.642 7.19918C55.8992 6.6488 55.159 6.0844 54.3618 5.62134C53.0977 4.88822 51.7295 4.39983 50.2999 4.06723C48.9048 3.74217 47.4914 3.60202 46.0688 3.57237C45.23 3.55458 44.3875 3.6446 43.5503 3.7233C42.7919 3.79446 42.0382 3.91575 41.2744 4.01602C42.0938 4.47691 42.9018 4.8866 43.6641 5.3696C45.2667 6.38466 46.7028 7.60617 47.9356 9.05194ZM27.1143 37.4724C27.6323 35.8159 28.338 34.2342 29.0215 32.6429C29.5757 31.3524 29.8786 29.9929 29.9794 28.5967C30.0296 27.9083 30.0155 27.2113 29.9816 26.5208C29.9479 25.7526 29.8774 24.9864 29.7703 24.2249C29.6269 23.2541 29.4635 22.2827 29.2339 21.3296C28.9849 20.2984 28.3568 19.5804 27.2809 19.3157C26.6254 19.1545 25.9742 19.161 25.3117 19.2656C23.6934 19.5205 22.2121 20.1167 20.8321 20.99C20.5545 21.1658 20.4019 21.3075 20.4499 21.7059C20.5512 22.5495 20.5733 23.4066 20.5695 24.2584C20.5642 25.4637 20.5129 26.669 20.4671 27.8738C20.452 28.2663 20.3954 28.6566 20.3534 29.0474C20.2887 29.6457 20.1642 30.2436 20.1679 30.8408C20.1717 31.4565 20.2348 32.0866 20.3841 32.6828C20.8585 34.5733 21.8633 36.1204 23.5101 37.212C24.523 37.8832 25.6437 38.2217 26.8739 38.2858C26.9574 38.0034 27.0318 37.7365 27.1143 37.4724ZM25.1812 21.2536C24.9645 20.7986 25.0885 20.4218 25.5909 20.2472C25.7133 20.2041 25.8394 20.1582 25.9666 20.1458C26.1413 20.1286 26.3192 20.1415 26.496 20.1415C27.1332 20.1448 27.7461 20.2337 28.2722 20.6391C28.6097 20.8989 28.7002 21.2439 28.4819 21.5981C28.1719 22.1005 27.6992 22.3528 27.1186 22.4013C26.2038 22.4773 25.5618 22.0509 25.1812 21.2536ZM50.5387 21.0876C50.612 20.4817 50.6708 19.8742 50.7457 19.2682C50.7759 19.0246 50.6476 18.9588 50.4433 18.9529C49.8007 18.9351 49.1582 18.9125 48.5156 18.9006C47.7911 18.8877 47.086 19.0041 46.4154 19.2796C45.6715 19.5858 45.105 20.0763 44.8737 20.886C44.7045 21.4831 44.6509 22.107 44.7158 22.7242C44.8058 23.6786 45.0221 24.6168 45.3589 25.5144C45.8085 26.7116 46.2791 27.9083 46.8413 29.0555C47.603 30.6085 48.465 32.112 49.2741 33.6413C49.4902 34.0493 49.6719 34.4752 49.8972 34.9517C50.3515 34.0044 50.5998 32.9715 50.6255 31.9211C50.6476 31.0532 50.5781 30.1816 50.5274 29.3131C50.4956 28.7816 50.4207 28.2533 50.3689 27.7229C50.2967 26.9839 50.1873 26.2453 50.1705 25.5047C50.1538 24.7516 50.2072 23.9942 50.2719 23.2422C50.3328 22.521 50.4519 21.8056 50.5387 21.0876ZM49.0892 20.5043C48.8504 21.1636 48.3399 21.5355 47.6779 21.645C47.0607 21.7463 46.52 21.5183 46.1179 21.0261C45.8316 20.6757 45.9411 20.2607 46.3702 20.024C46.8629 19.7512 47.4046 19.6823 48.0434 19.6407C48.217 19.6725 48.4784 19.699 48.7269 19.7701C49.0876 19.872 49.2207 20.1431 49.0892 20.5043ZM29.9945 40.8054C29.6414 40.517 29.1746 40.5003 28.8388 40.8167C28.4221 41.2103 28.0555 41.6604 27.6889 42.104C27.2658 42.6167 26.869 43.1498 26.323 43.5471C25.5284 44.1244 24.6023 44.3638 23.6713 44.5902C22.9312 44.7702 22.1878 44.9373 21.4455 45.1104L21.4364 45.2063C21.6568 45.3082 21.8703 45.4354 22.0999 45.5082C23.232 45.8667 24.3834 46.0451 25.5796 45.9438C26.4432 45.8704 27.2658 45.6823 28.0453 45.3125C29.118 44.8042 29.9433 43.9988 30.6452 43.0619C30.7627 42.9056 30.816 42.6743 30.8301 42.4727C30.878 41.7606 30.5163 41.2313 29.9945 40.8054ZM57.8915 41.089C56.9805 41.1865 56.0684 41.29 55.1547 41.3423C54.7138 41.3677 54.2663 41.2836 53.8211 41.2474C53.0745 41.1871 52.3457 41.021 51.7144 40.6221C51.3489 40.392 51.0454 40.3661 50.6573 40.4965C50.1032 40.683 49.6509 40.9666 49.5172 41.5671C49.4261 41.973 49.3932 42.3935 49.3566 42.8091C49.3496 42.8824 49.4412 43.0172 49.5113 43.0355C49.9388 43.1482 50.3684 43.2813 50.8056 43.3207C51.3425 43.3692 51.8891 43.3536 52.4298 43.3266C53.0136 43.2975 53.6011 43.2598 54.1763 43.1627C55.5321 42.9352 56.8436 42.5644 58.0085 41.7957C58.4284 41.5181 58.8446 41.2345 59.2618 40.9537L59.2273 40.8944C58.7821 40.9607 58.339 41.0415 57.8915 41.089Z" fill="#336791"/>
</svg>
