<svg width="56" height="56" viewBox="0 0 56 56" fill="none" xmlns="http://www.w3.org/2000/svg">
    <path d="M27.5051 0.00042874C25.2291 0.01121 23.0567 0.204733 21.1441 0.543265C15.5109 1.53837 14.4889 3.62131 14.4889 7.46321V12.5363H27.7999V14.2274H9.49284C5.62452 14.2274 2.23706 16.5523 1.17726 20.977C-0.0453343 26.0469 -0.0992406 29.2111 1.17726 34.5053C2.12331 38.4464 4.38306 41.2538 8.25191 41.2538H12.8291V35.1721C12.8291 30.7782 16.63 26.9029 21.1447 26.9029H34.4407C38.1419 26.9029 41.0959 23.855 41.0959 20.1387V7.46375C41.0959 3.8558 38.0524 1.14594 34.4407 0.543804C32.1529 0.163226 29.7805 -0.00981345 27.5051 0.00042874ZM20.3064 4.08059C21.681 4.08059 22.8044 5.22179 22.8044 6.62551C22.8044 8.0233 21.6816 9.15371 20.3064 9.15371C18.9264 9.15371 17.809 8.0233 17.809 6.62551C17.8084 5.22179 18.9264 4.08059 20.3064 4.08059Z" fill="url(#paint0_linear_0_1)"/>
    <path d="M42.7557 14.2274V20.1388C42.7557 24.7208 38.8701 28.5778 34.4401 28.5778H21.1442C17.5023 28.5778 14.4889 31.6952 14.4889 35.3425V48.0185C14.4889 51.6254 17.6252 53.7477 21.1442 54.7822C25.3575 56.0204 29.3983 56.2446 34.4401 54.7822C37.7909 53.8113 41.0954 51.8588 41.0954 48.0185V42.9449H27.8V41.2533H47.7517C51.6201 41.2533 53.0626 38.5553 54.4081 34.5048C55.7978 30.3351 55.7379 26.325 54.4081 20.9765C53.4518 17.1249 51.626 14.2269 47.7517 14.2269L42.7557 14.2274ZM35.2773 46.327C36.6578 46.327 37.7753 47.4574 37.7753 48.8562C37.7753 50.2589 36.6573 51.4001 35.2773 51.4001C33.9027 51.4001 32.7798 50.2589 32.7798 48.8562C32.7798 47.4574 33.9027 46.327 35.2773 46.327Z" fill="url(#paint1_linear_0_1)"/>
    <defs>
        <linearGradient id="paint0_linear_0_1" x1="-1.09442" y1="1.58669" x2="29.6072" y2="27.7689" gradientUnits="userSpaceOnUse">
            <stop stop-color="#5A9FD4"/>
            <stop offset="1" stop-color="#306998"/>
        </linearGradient>
        <linearGradient id="paint1_linear_0_1" x1="41.1584" y1="44.0442" x2="30.1483" y2="28.6043" gradientUnits="userSpaceOnUse">
            <stop stop-color="#FFD43B"/>
            <stop offset="1" stop-color="#FFE873"/>
        </linearGradient>
    </defs>
</svg>
