<svg width="68" height="61" viewBox="0 0 68 61" fill="none" xmlns="http://www.w3.org/2000/svg">
<path d="M33.7454 36.2789C37.1394 36.2789 39.8907 33.5276 39.8907 30.1336C39.8907 26.7396 37.1394 23.9883 33.7454 23.9883C30.3514 23.9883 27.6001 26.7396 27.6001 30.1336C27.6001 33.5276 30.3514 36.2789 33.7454 36.2789Z" fill="#61DAFB"/>
<path d="M57.0867 19.9992C55.9008 19.568 54.6609 19.1367 53.3672 18.7594C53.6906 17.4656 53.9602 16.1719 54.1758 14.932C55.3078 7.81641 54.068 2.80312 50.618 0.8625C49.5938 0.269531 48.4617 0 47.168 0C43.3945 0 38.5969 2.80312 33.7453 7.49297C28.8937 2.80312 24.0961 0 20.3227 0C19.0289 0 17.8969 0.269531 16.8727 0.8625C13.4227 2.85703 12.1828 7.87031 13.3148 14.932C13.5305 16.1719 13.8 17.4656 14.1234 18.7594C12.8297 19.1367 11.5898 19.5141 10.4039 19.9992C3.66563 22.5867 0 26.1445 0 30.1336C0 34.1227 3.71953 37.6805 10.4039 40.268C11.5898 40.6992 12.8297 41.1305 14.1234 41.5078C13.8 42.8016 13.5305 44.0953 13.3148 45.3352C12.1828 52.4508 13.4227 57.4641 16.8727 59.4047C17.8969 59.9977 19.0289 60.2672 20.3227 60.2672C24.15 60.2672 28.9477 57.4641 33.7453 52.7742C38.5969 57.4641 43.3945 60.2672 47.168 60.2672C48.4617 60.2672 49.5938 59.9977 50.618 59.4047C54.068 57.4102 55.3078 52.3969 54.1758 45.3352C53.9602 44.0953 53.6906 42.8016 53.3672 41.5078C54.6609 41.1305 55.9008 40.7531 57.0867 40.268C63.825 37.6805 67.4906 34.1227 67.4906 30.1336C67.4906 26.1445 63.825 22.5867 57.0867 19.9992ZM49.1086 3.55781C51.3187 4.85156 52.0734 8.84062 51.157 14.5008C50.9953 15.6328 50.7258 16.8188 50.4023 18.0586C47.5992 17.4117 44.6344 16.9805 41.5078 16.7109C39.675 14.1234 37.7883 11.8055 35.9016 9.70312C39.8906 5.76797 43.9336 3.07266 47.2219 3.07266C47.9227 3.07266 48.5695 3.23437 49.1086 3.55781ZM43.0711 35.5242C42.1008 37.2492 40.9687 38.9742 39.7828 40.6992C37.7883 40.8609 35.7938 40.9148 33.7453 40.9148C31.643 40.9148 29.6484 40.8609 27.7078 40.6992C26.5219 38.9742 25.4437 37.2492 24.4734 35.5242C23.4492 33.7453 22.4789 31.9125 21.6164 30.1336C22.4789 28.3547 23.4492 26.5219 24.4734 24.743C25.4437 23.018 26.5758 21.293 27.7617 19.568C29.7563 19.4063 31.7508 19.3523 33.7992 19.3523C35.9016 19.3523 37.8961 19.4063 39.8367 19.568C41.0227 21.293 42.1008 23.018 43.0711 24.743C44.0953 26.5219 45.0656 28.3547 45.9281 30.1336C45.0117 31.9125 44.0953 33.6914 43.0711 35.5242ZM47.5453 33.7453C48.3539 35.632 49.0008 37.4648 49.5938 39.2977C47.7609 39.7289 45.8203 40.0523 43.7719 40.3219C44.4187 39.2977 45.1195 38.2195 45.7125 37.0875C46.3594 35.9555 46.9523 34.8234 47.5453 33.7453ZM33.7453 48.3539C32.4516 46.9523 31.2117 45.443 30.0258 43.8797C31.2656 43.9336 32.5055 43.9875 33.7453 43.9875C34.9852 43.9875 36.225 43.9336 37.4648 43.8797C36.2789 45.443 35.0391 46.9523 33.7453 48.3539ZM23.7188 40.268C21.6703 39.9984 19.7297 39.675 17.8969 39.2438C18.4898 37.4648 19.1367 35.5781 19.9453 33.6914C20.5383 34.7695 21.1312 35.9016 21.7781 36.9797C22.425 38.1656 23.0719 39.1898 23.7188 40.268ZM19.9453 26.5219C19.1367 24.6352 18.4898 22.8023 17.8969 20.9695C19.7297 20.5383 21.6703 20.2148 23.7188 19.9453C23.0719 20.9695 22.3711 22.0477 21.7781 23.1797C21.1312 24.3117 20.5383 25.4437 19.9453 26.5219ZM33.7453 11.9133C35.0391 13.3148 36.2789 14.8242 37.4648 16.3875C36.225 16.3336 34.9852 16.2797 33.7453 16.2797C32.5055 16.2797 31.2656 16.3336 30.0258 16.3875C31.2117 14.8242 32.4516 13.3148 33.7453 11.9133ZM45.7125 23.2336L43.7719 19.9992C45.8203 20.2687 47.7609 20.5922 49.5938 21.0234C49.0008 22.8023 48.3539 24.6891 47.5453 26.5758C46.9523 25.4438 46.3594 24.3117 45.7125 23.2336ZM16.3336 14.5008C15.4172 8.84062 16.1719 4.85156 18.382 3.55781C18.9211 3.23437 19.568 3.07266 20.2687 3.07266C23.5031 3.07266 27.5461 5.71406 31.5891 9.70312C29.7023 11.7516 27.8156 14.1234 25.9828 16.7109C22.8562 16.9805 19.8914 17.4656 17.0883 18.0586C16.7648 16.8188 16.5492 15.6328 16.3336 14.5008ZM3.01875 30.1336C3.01875 27.6 6.09141 24.9047 11.482 22.9102C12.5602 22.4789 13.7461 22.1016 14.932 21.7781C15.7945 24.4734 16.8727 27.3305 18.1664 30.1875C16.8727 33.0445 15.7406 35.8477 14.932 38.543C7.49297 36.3867 3.01875 33.1523 3.01875 30.1336ZM18.382 56.7094C16.1719 55.4156 15.4172 51.4266 16.3336 45.7664C16.4953 44.6344 16.7648 43.4484 17.0883 42.2086C19.8914 42.8555 22.8562 43.2867 25.9828 43.5563C27.8156 46.1438 29.7023 48.4617 31.5891 50.5641C27.6 54.4992 23.557 57.1945 20.2687 57.1945C19.568 57.1945 18.9211 57.0328 18.382 56.7094ZM51.157 45.7664C52.0734 51.4266 51.3187 55.4156 49.1086 56.7094C48.5695 57.0328 47.9227 57.1945 47.2219 57.1945C43.9875 57.1945 39.9445 54.5531 35.9016 50.5641C37.7883 48.5156 39.675 46.1438 41.5078 43.5563C44.6344 43.2867 47.5992 42.8016 50.4023 42.2086C50.7258 43.4484 50.9414 44.6344 51.157 45.7664ZM56.0086 37.357C54.9305 37.7883 53.7445 38.1656 52.5586 38.4891C51.6961 35.7938 50.618 32.9367 49.3242 30.0797C50.618 27.2227 51.75 24.4195 52.5586 21.7242C59.9977 23.8805 64.4719 27.1148 64.4719 30.1336C64.4719 32.6672 61.3453 35.3625 56.0086 37.357Z" fill="#61DAFB"/>
</svg>
