<svg width="93" height="69" viewBox="0 0 93 69" fill="none" xmlns="http://www.w3.org/2000/svg">
<path fill-rule="evenodd" clip-rule="evenodd" d="M0 28.7722C0 29.2887 0.152105 29.6297 0.237343 29.9611C0.792859 32.1163 1.98692 33.9658 3.40363 35.6529C5.42142 38.0572 7.89258 39.9927 10.424 41.8128C12.6196 43.3912 14.86 44.9343 17.0645 46.5009C17.4429 46.7698 17.8007 47.0792 18.2115 47.4091C17.8581 47.6002 17.5641 47.7684 17.2584 47.9235C14.3493 49.399 11.5505 51.053 8.97054 53.0569C7.41569 54.2649 5.91227 55.5486 4.85047 57.2262C3.14204 59.9244 2.53729 62.799 3.81072 65.8682C4.18253 66.7647 4.7498 67.5392 5.55001 68.1116C5.8094 68.2968 6.10038 68.4805 6.40386 68.5525C7.18128 68.7355 7.97341 68.8552 8.76039 69L10.9891 68.9985C13.4536 68.7788 15.697 67.9345 17.7243 66.5354C20.8928 64.3487 23.0274 61.4168 23.9452 57.6538C24.6124 54.9189 24.6396 52.181 23.8534 49.4585C23.7781 49.2063 23.6913 48.9577 23.5932 48.7134C23.4977 48.4687 23.3853 48.2306 23.253 47.9257L28.3056 45.0203L28.3812 45.0849C28.2894 45.3855 28.1917 45.6853 28.1086 45.9887C27.5083 48.1814 27.1093 50.4123 27.2526 52.688C27.4054 55.1129 28.0822 57.3827 29.5018 59.4085C30.6496 61.0472 33.3846 61.1082 34.6043 59.4637C35.0371 58.8795 35.4567 58.2689 35.772 57.6171C36.5957 55.916 37.3584 54.1848 38.1454 52.4653L38.2828 52.1508C38.2262 52.965 38.1601 53.68 38.13 54.3957C38.0829 55.5133 38.1483 56.6244 38.5304 57.6876C38.8574 58.5973 39.4137 59.277 40.4556 59.3968C41.1684 59.4783 41.7364 59.1521 42.2603 58.7384C43.072 58.097 43.7447 57.2972 44.2377 56.3877C45.6346 53.8225 47.0689 51.2727 48.335 48.6429C49.7047 45.7984 50.9024 42.8709 52.1744 39.978L52.3845 39.4651C52.685 40.6459 52.8945 41.8025 53.2802 42.8974C53.7285 44.1679 54.2833 45.4082 54.8873 46.6141C55.1731 47.1835 55.14 47.5531 54.744 48.0308C53.0863 50.0294 51.4572 52.0524 49.8266 54.0731C49.4658 54.5191 49.1065 54.9732 48.806 55.4604C48.6237 55.7681 48.5038 56.1087 48.4533 56.4627C48.4027 56.7886 48.4803 57.1215 48.6697 57.3915C48.8592 57.6615 49.1458 57.8477 49.4695 57.911C50.1228 58.0517 50.7927 58.0994 51.4594 58.0528C53.7351 57.8853 55.8014 57.0865 57.6281 55.733C59.9949 53.9798 60.7547 51.5872 60.1816 48.7516C60.0265 47.9823 59.7524 47.2342 59.4857 46.4928C59.3659 46.1585 59.3578 45.9241 59.5761 45.6125C61.4682 42.9106 63.0848 40.0441 64.5882 37.1115C64.6477 36.9961 64.7087 36.8808 64.8131 36.7573C65.3002 39.2924 66.0336 41.7357 67.3474 43.9526C66.6773 44.5985 66.0137 45.1841 65.4134 45.8293C64.0915 47.2504 62.9452 48.7935 62.347 50.6753C62.0899 51.4866 61.8922 52.311 62.0068 53.1774C62.1846 54.5228 63.2869 55.3972 64.6103 55.0908C67.4422 54.4354 69.8869 53.1009 71.6732 50.7371C72.8754 49.1455 72.9849 47.3702 72.4815 45.5104C72.3434 45.0048 72.1795 44.5074 72.0032 43.9276C72.702 43.7108 73.3831 43.4507 74.0878 43.2898C77.7464 42.455 81.3654 42.6005 84.891 43.9217C86.9492 44.6933 88.612 45.9843 89.5982 48.0153C90.8025 50.4983 90.1368 52.854 87.7964 54.4236C87.5782 54.5698 87.3283 54.6852 87.1476 54.8682C87.0897 54.9353 87.0464 55.0137 87.0204 55.0985C86.9945 55.1832 86.9865 55.2725 86.9969 55.3605C87.0124 55.4509 87.2512 55.564 87.3886 55.5626C88.1579 55.5567 88.7818 55.1533 89.3807 54.7388C90.8811 53.7006 91.976 52.3037 92.2119 50.4645L92.2582 50.3263L92.2016 49.1286C92.1788 49.0595 92.2185 48.9912 92.2133 48.939C91.8944 46.2606 90.4638 44.1833 88.3828 42.555C85.9726 40.6702 83.1267 39.8942 80.1169 39.7715C77.6759 39.6665 75.238 40.0417 72.9415 40.8759C72.2824 41.1147 71.6291 41.3976 70.9663 41.6644C70.8774 41.5035 70.7819 41.3492 70.7033 41.1897C70.0229 39.7965 69.1984 38.465 69.0162 36.8675C68.8868 35.733 68.7281 34.5999 68.9978 33.4779C69.2572 32.3984 69.5952 31.3374 69.9134 30.2726C70.0772 29.7245 69.9619 29.4173 69.4387 29.1704C69.2564 29.0795 69.0618 29.0157 68.8611 28.9809C67.5752 28.7942 66.3069 28.9008 65.0614 29.263C64.6205 29.3916 64.3002 29.6385 64.2024 30.1264C64.1466 30.4064 64.0327 30.6746 63.9533 30.9509C63.6278 32.0994 63.3971 33.2699 62.871 34.3641C61.5527 37.1086 60.0478 39.7495 58.5077 42.3713C58.3409 42.6542 58.1652 42.9319 57.9551 43.2751C57.4143 42.1435 56.8374 41.128 56.6626 39.9376C56.4649 38.5914 56.3091 37.2475 56.6442 35.9116C56.8933 34.9152 57.2188 33.9371 57.5186 32.954C57.6604 32.4866 57.595 32.2412 57.1718 31.995C56.958 31.8709 56.7162 31.7606 56.4752 31.7246C55.1566 31.5238 53.8094 31.634 52.541 32.0465C52.142 32.1758 51.9326 32.4337 51.8106 32.8452C51.452 34.0591 51.1464 35.3024 50.643 36.4568C48.6046 41.1302 46.5075 45.7793 44.4126 50.4277C43.9754 51.3984 43.4632 52.3353 42.9701 53.2802C42.8452 53.5198 42.663 53.7307 42.5072 53.9555C42.3823 53.8078 42.3338 53.7064 42.3345 53.605C42.3382 53.0076 42.2669 52.3926 42.3808 51.815C42.7306 50.0683 43.1172 48.3291 43.5403 46.5986C43.8857 45.1687 44.2877 43.752 44.6705 42.3316C44.7991 41.8562 44.8013 41.4116 44.4596 41.0119C43.8857 40.3425 42.6865 40.1955 41.9752 40.7113L41.6607 40.8892L41.7217 40.3821C41.8716 39.2954 41.9017 38.2122 41.6034 37.1416C41.2316 35.8072 40.2793 35.0393 38.8949 35.082C38.2497 35.1018 37.5722 35.212 36.9748 35.4472C34.4625 36.4318 32.5307 38.1755 30.8862 40.2734C30.7338 40.4682 30.5448 40.6314 30.33 40.754C28.2042 41.9326 26.0717 43.0965 23.9401 44.2649L21.5674 45.5648C20.931 44.9578 20.3527 44.3281 19.6965 43.7939C17.6927 42.1596 15.6566 40.5658 13.6388 38.95C11.8503 37.5179 10.1176 36.0262 8.79199 34.1297C7.80587 32.7188 7.17026 31.175 7.10927 29.4306C7.03212 27.2078 7.66258 25.1767 8.79419 23.2861C10.2418 20.8671 12.2162 18.9257 14.3868 17.1673C16.6831 15.3083 19.1667 13.7299 21.7408 12.2889C25.3421 10.2734 29.0462 8.48924 33.0179 7.31135C37.0902 6.10332 41.222 5.41187 45.4839 5.8939C47.1593 6.08348 48.7861 6.46705 50.28 7.28636C51.4241 7.91315 52.3625 8.73394 52.7989 10.0169C53.2295 11.2793 53.2163 12.5586 52.918 13.8409C52.3118 16.4377 50.8899 18.5782 49.1006 20.4909C46.1658 23.6263 42.5858 25.7609 38.5554 27.171C36.238 27.9828 33.8269 28.4972 31.38 28.7016C29.3747 28.8699 27.4113 28.6921 25.5126 27.9947C24.2553 27.5325 23.1604 26.8257 22.2801 25.7999C22.1229 25.6162 21.9215 25.417 21.6284 25.589C21.341 25.758 21.2903 26.0313 21.3866 26.3084C21.5475 26.7683 21.696 27.2474 21.9465 27.6589C22.5763 28.6913 23.4948 29.4401 24.5059 30.0823C26.448 31.3175 28.6186 31.7327 30.8693 31.829C34.2847 31.9767 37.6171 31.4667 40.9024 30.5504C45.5927 29.2424 49.6709 26.9322 52.9415 23.2876C55.6647 20.2528 57.6097 16.8279 58.0264 12.6923C58.2299 10.6738 58.0131 8.69646 57.0682 6.85503C56.0431 4.86002 54.4133 3.37645 52.4646 2.35433C49.6268 0.86634 46.5641 0 43.4029 0H40.2359C36.4076 0 32.7063 1.09707 29.1087 2.40576C26.3855 3.39702 23.7152 4.56683 21.1228 5.86157C15.4773 8.6825 10.2197 12.0839 5.90125 16.761C3.74973 19.0911 1.92814 21.6622 0.880301 24.6896C0.564043 25.5934 0.291602 26.512 0.0639284 27.4422M20.5203 53.9048C20.2756 57.1813 18.7905 59.8377 16.3635 61.9892C14.9982 63.1987 13.4323 64.0599 11.6085 64.3626C10.9472 64.4721 10.2704 64.4986 9.62893 64.2245C8.7141 63.8336 8.50908 63.0216 8.49145 62.1567C8.46426 60.7782 8.94703 59.532 9.60909 58.346C10.4732 56.8 11.74 55.6213 13.0928 54.5206C15.2238 52.7857 17.5355 51.3176 19.903 49.9317L20.0816 49.8582C20.4475 51.2103 20.6217 52.5454 20.5203 53.9048ZM39.0066 39.665C38.8339 40.7113 38.6179 41.7584 38.3122 42.7725C37.2555 46.2827 35.8983 49.6841 34.4309 53.04C34.1598 53.6609 33.7652 54.2274 33.422 54.816C33.3637 54.9065 33.2938 54.989 33.2141 55.0614C32.7894 55.481 32.3867 55.4589 32.1721 54.91C31.9223 54.2722 31.7687 53.5896 31.6364 52.9143C31.5475 52.4609 31.5688 51.9848 31.5409 51.5204C31.5696 48.2181 32.577 45.2172 34.2862 42.4234C34.9909 41.2713 35.758 40.1735 36.93 39.4445C37.2946 39.2178 37.6891 39.0432 38.102 38.9258C38.7266 38.7501 39.1102 39.0389 39.0066 39.665ZM51.6188 55.7338L56.1519 50.4409C56.3407 52.4065 52.9995 56.3304 51.6188 55.7338ZM66.0968 52.1721C65.7764 52.3559 65.4274 52.4881 65.0989 52.6579C64.7984 52.8136 64.6992 52.6564 64.6903 52.3977C64.6859 52.2187 64.709 52.04 64.7587 51.8679C65.3708 49.7091 66.4972 47.8662 68.1733 46.3672L68.2909 46.3069C69.0882 48.537 68.1667 50.9862 66.0968 52.1721Z" fill="#CB6699"/>
</svg>
