<svg width="800" height="800" viewBox="0 0 800 800" fill="none" xmlns="http://www.w3.org/2000/svg">
<path d="M146.563 179.062C139.219 180.781 143.906 180.469 137.812 181.25C111.719 186.875 131.094 191.875 146.563 179.062ZM605.469 189.531C607.344 188.281 613.906 181.875 593.437 175.625C594.687 182.031 589.219 181.406 589.219 185C604.375 198.75 610.625 222.656 630 227.656C633.75 210.469 612.812 202.031 605.469 189.531ZM132.656 174.063C135 187.969 145.469 159.375 145.625 149.219C141.562 151.562 137.5 153.906 133.281 155.781C143.125 160.781 134.531 166.094 123.906 174.063C102.344 200.938 144.063 153.125 132.656 174.063ZM400 0C179.063 0 0 179.063 0 400C0 620.781 179.063 800 400 800C620.937 800 800 620.781 800 400C800 179.063 620.937 0 400 0ZM410.625 134.063L412.5 134.687C405 144.375 451.563 172.656 418.125 175C386.875 183.906 431.25 166.875 407.031 169.844C419.844 152.031 396.875 151.719 410.625 134.063ZM220.937 159.687C209.687 150.312 174.375 172.5 186.719 167.188C217.344 155.156 188.75 168.438 195.938 182.812C189.375 196.406 193.75 169.375 177.5 185.469C165.781 188.125 137.031 214.687 140.625 206.562C139.687 219.219 106.406 234.219 101.875 255.312C90.9375 284.531 99.2188 254.219 97.1875 242.812C81.5625 222.969 53.125 276.406 61.5625 297.5C75.7813 272.5 74.6875 294.844 64.375 305.938C74.8438 325.156 54.8437 350.156 74.6875 364.375C83.4375 366.406 100.938 335 93.2813 367.656C98.5938 339.375 107.969 374.375 123.125 366.563C124.063 381.406 133.281 374.531 135.312 392.5C160.625 390.625 183.75 433.438 153.594 441.563C158.125 440.313 167.031 448.281 177.344 442.188C194.844 456.094 240.937 457.812 242.188 492.188C210.469 507.344 234.375 548.906 206.875 563.75C175.312 559.062 196.094 602.656 182.812 597.656C188.125 629.063 150.938 593.594 165.313 610.938C191.719 627.187 153.75 623.906 165.625 635.781C152.344 632.969 173.906 660.469 177.5 670.625C196.562 701.563 161.094 663.75 150.625 653.438C140.625 633.438 117.031 595.156 110.469 563.75C106.719 518.125 71.4062 487.5 63.2812 442.969C55.1563 418.125 85.625 378.281 69.2187 364.375C55 353.281 60.7813 315.313 52.3438 295.312C73.4375 203.906 140.469 126.875 220.937 81.25C212.656 87.3438 268.281 65.4687 261.875 70.7812C260.156 74.6875 294.375 55.9375 315 53.125C312.813 53.4375 261.406 71.875 275.625 69.375C253.594 80.1563 273.438 74.0625 284.375 68.5938C262.5 84.6875 245.625 80.1563 220.781 94.375C195.781 100.938 200.937 126.875 183.125 139.844C193.594 141.719 219.844 112.812 235.156 102.656C270.312 85.625 217.344 133.594 250.781 112.969C239.531 123.438 241.875 140.156 235 144.844C231.562 143.906 248.594 152.969 220.937 159.687ZM275.625 87.8125C272.031 92.6563 267.031 103.125 264.062 96.7188C260 98.75 258.438 107.5 250.781 100.469C255.313 97.1875 260 89.375 251.094 94.2187C255.156 89.8437 291.406 77.5 289.375 72.8125C295.781 68.75 295.156 66.7187 287.812 69.2187C284.062 67.9687 296.719 57.3437 313.594 55.9375C315.937 55.9375 316.875 57.5 312.656 57.0312C287.188 64.8438 298.125 62.6562 315.313 57.0312C308.75 60.7813 304.219 61.875 303.125 63.5938C320.312 57.3438 302.187 68.125 306.094 67.3437C301.25 69.8437 306.875 70.625 297.5 74.2188C299.219 72.8125 282.188 84.375 292.344 80.9375C282.5 90.3125 278.125 90.4688 275.625 87.8125ZM290.625 110.156C290.938 95.1562 312.5 85.625 309.844 84.8437C336.406 72.3437 300.625 85.3125 321.563 74.0625C329.375 73.2813 345.938 48.2812 368.906 46.7187C394.219 39.0625 382.5 47.1875 401.25 40L397.5 43.125C394.219 43.5938 398.281 49.375 386.406 58.125C385.156 71.7188 363.75 65.4688 374.375 80C367.5 70.1563 357.187 79.6875 370.156 80.625C356.25 91.25 323.906 93.125 308.437 110.781C298.437 125.156 289.219 120.625 290.625 110.156ZM401.719 160.156C391.094 185.781 380.781 156.406 399.531 151.719C404.219 154.219 406.094 155 401.719 160.156ZM361.719 108.906C358.594 97.3437 361.094 103.438 379.688 97.9688C392.5 107.188 368.281 113.281 361.719 108.906ZM652.656 567.5C637.969 542.188 670.469 518.75 681.406 497.5C680 522.344 676.875 546.875 652.656 567.5ZM707.969 278.281C692.031 279.531 677.656 283.281 663.281 274.219C630.156 237.969 669.375 315.156 680.312 283.594C719.687 298.594 679.688 363.281 654.844 356.562C640.938 326.562 623.75 293.594 593.437 278.906C616.719 304.688 628.281 336.406 653.281 359.687C655 392.187 687.969 347.812 685.938 372.969C689.062 416.25 637.031 442.187 646.094 485.625C665.469 525.156 608.75 532.344 615.156 567.812C592.344 593.281 567.969 627.656 527.031 622.188C527.031 600.625 516.094 582.344 513.594 560.156C491.406 532.031 537.031 501.875 508.75 472.5C476.094 465.156 515.469 420.156 481.875 424.375C461.719 404.219 432.188 423.75 403.281 423.906C367.031 427.344 329.688 379.375 345.781 345.469C332.969 310.156 386.406 299.844 387.812 268.75C413.437 247.344 449.844 250 484.531 245C482.031 269.844 508.281 270 528.125 278.281C539.219 251.406 573.75 282.656 597.344 265.625C605.469 225.938 574.375 249.844 556.563 237.188C535 205.625 602.656 220.938 595.625 204.375C569.375 204.219 584.219 172.031 565.625 190C582.344 192.969 562.656 206.094 563.125 191.094C537.812 183.75 562.188 219.844 549.375 223.281C529.844 215.156 539.062 232.5 541.094 235.156C532.656 253.437 522.344 208.281 498.438 209.531C474.688 187.813 489.063 219.375 509.688 224.531C505.313 225.781 512.187 243.75 506.719 236.094C489.687 212.656 457.344 197.031 438.125 225.781C436.094 252.656 381.406 260.313 390.156 228.906C377.344 196.406 429.844 227.969 425 202.031C391.25 179.688 434.219 186.875 445.625 165.937C471.563 166.719 446.719 144.687 458.906 138.281C457.656 162.188 478.75 157.656 495.469 153.125C491.406 139.375 505.469 139.844 496.875 128.437C535.625 112.969 467.344 135.625 481.094 101.719C464.375 90.1562 474.062 127.188 481.094 131.094C481.562 142.5 471.875 156.563 458.594 132.656C439.219 145.313 441.25 119.844 440 122.5C437.813 112.656 454.688 112.187 454.844 95C453.438 84.0625 453.75 78.2813 461.562 77.6563C462.187 79.2188 493.594 79.6875 504.688 92.6562C474.375 86.5625 500.156 97.6562 513.75 103.906C499.219 92.5 519.531 103.906 507.656 90.9375C512.344 91.875 494.688 73.125 512.813 89.5312C502.969 77.8125 532.031 81.25 514.844 72.5C540 79.5313 525.156 73.125 510.313 66.7188C469.375 42.3438 582.656 99.6875 536.406 74.2188C565.937 80.625 473.281 51.4062 515.469 64.2187C499.375 57.1875 515 61.0937 529.531 65.625C503.437 57.5 464.375 42.3438 465.938 41.7188C475 42.3438 483.906 44.375 492.5 46.875C519.219 54.8437 484.844 45 492.188 45.1562C584.062 68.75 664.531 130.312 713.438 210.781C724.844 222.812 755.937 302.344 739.687 267.031C747.031 295.156 748.125 325.469 752.031 354.219C743.906 345.156 734.844 311.719 727.031 293.125C723.75 300.313 720 282.969 707.969 278.281Z" fill="white"/>
</svg>
